<?xml version="1.0" encoding="utf-8"?>
<!-- Generator: Adobe Illustrator 27.3.1, SVG Export Plug-In . SVG Version: 6.00 Build 0)  -->
<svg version="1.1" id="Layer_1" xmlns="http://www.w3.org/2000/svg" xmlns:xlink="http://www.w3.org/1999/xlink" x="0px" y="0px"
	 viewBox="0 0 230.4 86.4" style="enable-background:new 0 0 230.4 86.4;" xml:space="preserve">
<style type="text/css">
	.st0{fill-rule:evenodd;clip-rule:evenodd;fill:#2C2A29;}
	.st1{fill-rule:evenodd;clip-rule:evenodd;fill:#F39320;}
</style>
<g>
	<path class="st0" d="M112.09,2.82c6.79,0,13.46,0,20.24,0l11.42,25.35L155.17,2.8c6.83,0,13.54,0.02,20.37,0.02v38.33h-10.61V13.48
		h-3.04l-12.37,27.67h-11.56L125.6,13.48h-2.9v27.67h-10.61c0-12.78-0.02-25.53-0.02-38.29h0.02V2.82z"/>
	<path class="st0" d="M57.09,41.02h10.95l0.01-24.94c0-0.55-0.04-1.16,0.22-1.67c0.35-0.7,1.08-1.2,1.9-1.2c0.04,0,0.08,0,0.11,0
		c6.79,0,29.31,0,36.24,0V2.67c-7.89,0-30.43,0-38.32,0c-0.08,0-0.16,0-0.25,0.01c-0.1,0-0.19,0-0.29,0c-5.4,0-9.88,4.08-10.52,9.32
		c-0.05,0.28-0.07,0.55-0.07,0.82v0.02c-0.01,0.16-0.01,0.31-0.01,0.47c0,0.16,0.01,0.33,0.01,0.49L57.09,41.02z"/>
	<path class="st0" d="M1.59,30.66c6.95,0,29.45,0,36.26,0c0.15,0.01,0.3,0,0.44-0.04c1-0.17,1.77-1.04,1.77-2.1l-0.01-5.16
		c-8.06,0-19.5,0-27.37,0c-0.18,0-0.35,0-0.53,0c-5.4,0-9.87-4.08-10.52-9.32c-0.1-0.59-0.1-1.2-0.07-1.8l0-9.33h10.97l0,6.93
		c0,0.29,0,0.59,0.01,0.88c0.02,1.19,1.04,2.15,2.21,2.09c6.76,0,18.13,0,25.27,0l-0.02-9.96h11l-0.01,27.23
		c0.02,0.49,0.01,1.32-0.07,1.8c-0.65,5.24-5.12,9.32-10.52,9.32c-0.18,0-0.36,0-0.53,0c-7.89,0-30.4,0-38.29,0V30.66z"/>
	<polygon class="st0" points="181.25,2.83 191.89,2.83 191.89,17 198.05,17 213.09,2.83 228.86,2.83 207.17,21.86 228.74,41.18 
		212.98,41.18 198.05,27.01 191.89,27.01 191.89,41.18 181.25,41.18 	"/>
	<path class="st1" d="M192.57,65.7l0,5.51c0,0.21-0.01,0.42,0,0.64c0.02,1.11,0.98,2.03,2.08,1.97c6.81,0,15.4,0,22.21,0
		c1.12,0.01,2.07-0.86,2.07-2.01v-1.23h9.9l0,2.7c0.04,0.92-0.04,1.75-0.25,2.65c-0.92,3.97-4.2,7.12-8.27,7.7
		c-0.63,0.09-1.26,0.1-1.89,0.1c-8.48,0-16.96,0-25.44,0c-0.91,0-1.79-0.04-2.68-0.25c-4.03-0.92-7.15-4.32-7.66-8.51
		c-0.09-0.55-0.09-1.13-0.06-1.69l0-7.58l0-7.23c-0.03-0.55-0.03-1.14,0.06-1.69c0.53-4.35,3.86-7.84,8.11-8.6
		c0.74-0.13,1.49-0.16,2.24-0.16c8.48,0,16.96,0,25.44,0c0.52,0,1.03,0,1.55,0.06c4.36,0.47,7.89,3.79,8.7,8.06
		c0.15,0.77,0.17,1.48,0.16,2.33l0,2.48h-9.9v-1.01c0-0.46-0.15-0.87-0.4-1.21c-0.38-0.5-1.05-0.81-1.67-0.8c-6.81,0-15.4,0-22.21,0
		c-0.13-0.01-0.26,0-0.38,0.03c-0.93,0.13-1.65,0.93-1.7,1.87c-0.01,0.19,0,0.38,0,0.57L192.57,65.7z"/>
	<path class="st1" d="M1.56,47.95h9.98l-0.02,23.43c-0.04,1.2,0.59,2.36,2.08,2.43c6.81,0,15.4,0,22.21,0
		c1.11,0.06,2.07-0.89,2.07-1.99l0.01-23.88h9.9l0.01,25.33c0.01,0.3,0.01,0.6,0,0.9v0.02c0,0.25-0.02,0.5-0.06,0.76
		c-0.61,4.89-4.8,8.69-9.85,8.69c-8.81,0-17.63,0-26.44,0c-5.05,0-9.24-3.8-9.85-8.69c-0.04-0.26-0.06-0.51-0.06-0.76v-0.02
		c0-0.11-0.01-0.22-0.01-0.34v-0.07v-0.08v-0.06c0-0.12,0-0.23,0.01-0.35L1.56,47.95z"/>
	<path class="st1" d="M72.14,47.95l10.68,23.6l10.67-23.57l19.14,0v35.67h-9.95v-25.8h-2.85l-11.59,25.8H77.4l-11.59-25.8h-2.72
		v25.8h-9.95c0-11.91-0.02-23.81-0.02-35.71L72.14,47.95z"/>
	<path class="st1" d="M136.79,47.95l10.68,23.6l10.67-23.57l19.14,0v35.67h-9.95v-25.8h-2.85l-11.59,25.8h-10.84l-11.59-25.8h-2.72
		v25.8h-9.95c0-11.91-0.02-23.81-0.02-35.71L136.79,47.95z"/>
</g>
</svg>
