<svg width="1376" height="2914" viewBox="0 0 1376 2914" fill="none" xmlns="http://www.w3.org/2000/svg">
<path d="M1174 2901C1174 2894.37 1179.37 2889 1186 2889H1213C1219.63 2889 1225 2894.37 1225 2901V2914H1174V2901Z" fill="#212121"/>
<path d="M675 5C675 3.34315 676.343 2 678 2H730C731.657 2 733 3.34315 733 5V10C733 11.6569 731.657 13 730 13H678C676.343 13 675 11.6569 675 10V5Z" stroke="#212121" stroke-width="4"/>
<path d="M703 46C705 194 511 176 402 176C98 176 6 379 6 530C6 838 174.46 894.549 703 843.5C1127.5 802.5 1371.95 894 1369 1187.5C1365 1585 933 1493 701 1461C468.083 1428.87 6 1391.5 6 1810C6 2228.5 411.737 2185.9 790.5 2150C1049 2125.5 1261.67 2144.5 1238.5 2503C1230 2634.5 1199.5 2828 1199.5 2889.5" stroke="#212121" stroke-width="12"/>
<path d="M684.5 35V13H722.5V35C722.5 40.5228 718.023 45 712.5 45H694.5C688.977 45 684.5 40.5228 684.5 35Z" fill="#212121" stroke="#212121" stroke-width="4"/>
</svg>
