<svg width="448" height="186" viewBox="0 0 448 186" fill="none" xmlns="http://www.w3.org/2000/svg">
<path d="M258.258 93.2591H447V185.201C395.423 185.45 287.71 185.799 269.471 185.201C251.232 184.603 248.666 155.55 249.662 141.099C242.785 100.435 252.528 92.2625 258.258 93.2591Z" fill="#5F5F5F"/>
<path d="M270.592 131.381C266.107 105.219 266.107 91.5773 256.016 92.8854C238.824 95.1141 245.177 151.937 248.915 166.513C252.652 181.089 261.248 185.201 266.107 184.453C270.966 183.706 277.59 172.204 270.592 131.381Z" fill="#222C32"/>
<path d="M260.15 122.785H87.8303V148.2H260.889C262.127 148.2 263.279 147.758 264.104 146.834C270.526 139.636 267.463 130.587 264.147 124.962C263.321 123.562 261.776 122.785 260.15 122.785Z" fill="#DFCE49"/>
<path d="M262.883 149.695H90.8202V175.11H263.343C264.669 175.11 265.913 174.597 266.759 173.576C273.412 165.547 270.216 157.031 266.782 151.718C265.935 150.408 264.444 149.695 262.883 149.695Z" fill="#E6E4E0"/>
<path d="M255.115 95.8754H83.3453V121.29C134.7 121.645 237.8 121.326 258.011 121.293C259.615 121.29 261.087 120.527 261.926 119.16C269.234 107.257 262.628 99.7802 257.487 96.5221C256.781 96.0743 255.951 95.8754 255.115 95.8754Z" fill="#2E9DDD"/>
<path d="M90.0727 108.583C90.3717 99.6128 85.7124 96.3737 83.3453 95.8754C79.9816 95.8754 75.4967 99.9866 75.4967 108.583C75.4967 115.46 80.3554 121.29 83.3453 121.29C85.5878 121.29 89.7737 117.553 90.0727 108.583Z" fill="#4B80A7"/>
<path d="M97.5477 162.402C97.8467 153.432 93.1873 150.193 90.8202 149.695C87.4565 149.695 82.9716 153.806 82.9716 162.402C82.9716 169.279 87.4565 175.109 90.8202 175.109C93.0627 175.109 97.2487 171.372 97.5477 162.402Z" fill="#B9AEA9"/>
<path d="M11.9599 155.675H91.194C94.7819 161.057 92.689 166.887 91.194 169.13H11.9599V155.675Z" fill="#C77B65"/>
<path d="M7.47492 162.028C7.47492 165.616 9.34365 169.13 11.5861 169.13C15.3236 169.13 14.9498 155.675 11.5861 155.675C10.8386 155.675 7.47492 157.543 7.47492 162.028Z" fill="#B06853"/>
<path d="M94.5577 135.492C94.8567 126.523 90.1973 123.283 87.8303 122.785C84.4666 122.785 79.9816 126.896 79.9816 135.492C79.9816 142.369 84.4666 148.2 87.8303 148.2C90.4465 148.2 94.2587 144.462 94.5577 135.492Z" fill="#C6AB52"/>
<path d="M8.9699 128.018H88.204C91.792 133.399 89.699 139.23 88.204 141.472H8.9699V128.018Z" fill="#C77B65"/>
<path d="M4.48495 134.371C4.48495 137.959 6.35368 141.472 8.59616 141.472C12.3336 141.472 11.9599 128.018 8.59616 128.018C7.84866 128.018 4.48495 129.886 4.48495 134.371Z" fill="#B06853"/>
<path d="M4.48495 101.855H83.7191C87.307 107.237 85.214 113.068 83.7191 115.31H4.48495V101.855Z" fill="#C77B65"/>
<path d="M0 108.209C0 111.797 1.86873 115.31 4.1112 115.31C7.84866 115.31 7.47492 101.855 4.1112 101.855C3.36371 101.855 0 103.724 0 108.209Z" fill="#B06853"/>
<path d="M325.86 0.0504086H447.371V59.5855C414.166 59.7469 344.82 59.9728 333.078 59.5855C321.336 59.1983 319.684 40.3859 320.325 31.028C315.898 4.69705 322.17 -0.594959 325.86 0.0504086Z" fill="#5F5F5F"/>
<path d="M334.038 24.8353C331.149 7.99458 331.149 -0.786656 324.651 0.0553918C313.579 1.48999 317.67 38.0673 320.077 47.45C322.484 56.8326 328.02 59.479 331.149 58.9979C334.278 58.5167 338.544 51.1131 334.038 24.8353Z" fill="#222C32"/>
<path d="M326.098 29.8997H183.507V51.5769H326.558C327.907 51.5769 329.174 51.0538 329.999 49.9875C335.097 43.3997 332.743 36.4686 330.017 31.9827C329.195 30.6308 327.68 29.8997 326.098 29.8997Z" fill="#E6E4E0"/>
<path d="M188.728 40.7383C188.973 33.0875 185.154 30.3247 183.213 29.8997C180.456 29.8997 176.779 33.4063 176.779 40.7383C176.779 46.6039 180.456 51.5769 183.213 51.5769C185.051 51.5769 188.483 48.3891 188.728 40.7383Z" fill="#B9AEA9"/>
<path d="M118.475 35.1321H184.108C187.08 39.6171 185.346 44.4757 184.108 46.3445H118.475V35.1321Z" fill="#C77B65"/>
<path d="M113.99 40.4268C113.99 43.4168 115.639 46.3445 117.618 46.3445C120.917 46.3445 120.587 35.1321 117.618 35.1321C116.959 35.1321 113.99 36.6894 113.99 40.4268Z" fill="#B06853"/>
<path d="M321.495 5.97993H179.769V26.7738C221.831 27.0617 305.899 26.8075 323.641 26.7768C325.237 26.774 326.743 26.0295 327.56 24.6584C333.152 15.2706 328.009 9.31057 323.844 6.62251C323.147 6.17265 322.324 5.97993 321.495 5.97993Z" fill="#2E9DDD"/>
<path d="M185.737 16.4448C185.998 9.05784 181.939 6.39032 179.878 5.97993C176.948 5.97993 173.042 9.36563 173.042 16.4448C173.042 22.1082 177.274 26.9097 179.878 26.9097C181.831 26.9097 185.477 23.8318 185.737 16.4448Z" fill="#4B80A7"/>
<path d="M114.737 11.2124H180.371C183.343 15.3983 181.609 19.9331 180.371 21.6773H114.737V11.2124Z" fill="#C77B65"/>
<path d="M111 16.1541C111 18.9448 112.443 21.6773 114.175 21.6773C117.061 21.6773 116.772 11.2124 114.175 11.2124C113.597 11.2124 111 12.6658 111 16.1541Z" fill="#B06853"/>
</svg>
