<?xml version="1.0" encoding="utf-8"?>
<!-- Generator: Adobe Illustrator 27.3.1, SVG Export Plug-In . SVG Version: 6.00 Build 0)  -->
<svg version="1.1" id="Layer_2" xmlns="http://www.w3.org/2000/svg" xmlns:xlink="http://www.w3.org/1999/xlink" x="0px" y="0px"
	 viewBox="0 0 122.4 244.8" style="enable-background:new 0 0 122.4 244.8;" xml:space="preserve">
<rect x="28.7" y="40.39" width="64.86" height="3.96"/>
<rect x="28.7" y="46.46" width="64.86" height="4.99"/>
<rect x="28.7" y="36.4" width="64.86" height="1.98"/>
<rect x="28.7" y="32.42" width="64.86" height="1.98"/>
<rect x="28.7" y="55.42" width="64.86" height="1.98"/>
<rect x="28.7" y="63.29" width="64.86" height="1.98"/>
<rect x="28.7" y="71.4" width="64.86" height="3.94"/>
<rect x="28.7" y="77.4" width="64.86" height="1.98"/>
<rect x="28.7" y="83.39" width="64.86" height="1.98"/>
<rect x="28.7" y="88.2" width="64.86" height="5.12"/>
<rect x="28.7" y="95.39" width="64.86" height="0.99"/>
<rect x="28.7" y="100.48" width="64.86" height="5.85"/>
<rect x="28.7" y="114.39" width="64.86" height="5.85"/>
<rect x="28.7" y="108.47" width="64.86" height="1.83"/>
<rect x="28.7" y="122.4" width="64.86" height="1.83"/>
<rect x="28.7" y="126.39" width="64.86" height="1.83"/>
<rect x="28.7" y="130.33" width="64.86" height="2"/>
<rect x="28.7" y="138.28" width="64.86" height="1.14"/>
<rect x="28.7" y="144.65" width="64.86" height="2.92"/>
<rect x="28.7" y="149.44" width="64.86" height="3.91"/>
<rect x="28.7" y="157.36" width="64.86" height="3.91"/>
<rect x="28.7" y="165.28" width="64.86" height="3.91"/>
<rect x="28.7" y="171.38" width="64.86" height="3.91"/>
<rect x="28.7" y="177.25" width="64.86" height="3.1"/>
<rect x="28.7" y="185.22" width="64.86" height="1.14"/>
<rect x="28.7" y="188.42" width="64.86" height="1.91"/>
<rect x="28.77" y="198.4" width="64.86" height="1.91"/>
<rect x="28.77" y="206.43" width="64.86" height="1.91"/>
<rect x="28.7" y="212.43" width="64.86" height="1.91"/>
<rect x="28.7" y="216.47" width="64.86" height="1.91"/>
</svg>
