<svg width="106" height="106" viewBox="0 0 106 106" fill="none" xmlns="http://www.w3.org/2000/svg">
<path d="M92.652 96.3716H91.9881L88.8983 90.9372C88.6008 90.4138 88.0453 90.0906 87.4435 90.0906H82.7849V70.3073V48.85V29.0661H84.6556V36.5532C84.6556 37.4776 85.4051 38.2268 86.3292 38.2268H92.6518C93.5764 38.2268 94.3255 37.4778 94.3255 36.5532V28.7377C95.9631 28.0735 97.1222 26.4684 97.1222 24.5952V23.9079C97.1222 21.4429 95.1167 19.4372 92.6516 19.4372H90.1769L77.6942 7.12439C77.5764 7.00803 77.4451 6.91363 77.3062 6.83951V4.47044C77.3064 2.00552 75.3007 0 72.8355 0H72.1482C69.8205 0 67.9046 1.78896 67.6982 4.06425L17.5851 19.4376H13.6674C11.2025 19.4376 9.19698 21.4431 9.19698 23.9083V24.5956C9.19698 26.8407 10.8623 28.6992 13.0217 29.0141V33.7566C13.0217 35.8824 14.5144 37.6631 16.5058 38.114V57.5926C14.9982 58.2431 13.9395 59.7432 13.9395 61.4869C13.9395 62.2487 14.1444 62.9626 14.4976 63.581L10.6775 68.6336H10.5512C9.62678 68.6336 8.87753 69.3827 8.87753 70.3073V79.4682V84.421C8.87753 85.3456 9.62699 86.0947 10.5512 86.0947H25.8084C26.7328 86.0947 27.4821 85.3456 27.4821 84.421V79.4682V70.3073C27.4821 69.3827 26.7326 68.6336 25.8084 68.6336H25.6821L21.8618 63.581C22.215 62.9624 22.4199 62.2487 22.4199 61.4869C22.4199 59.743 21.3612 58.2431 19.8535 57.5926V37.8991C21.3251 37.3024 22.4067 35.9449 22.6116 34.3162H46.9422V36.5534C46.9422 37.478 47.6917 38.227 48.6159 38.227H62.1995V48.8498V70.307V90.0904H57.5408C56.939 90.0904 56.3831 90.4136 56.0856 90.9372L52.9965 96.3716H52.3325C49.8676 96.3716 47.8621 98.3771 47.8621 100.842V101.529C47.8621 103.994 49.8676 106 52.3325 106H92.6522C95.1171 106 97.1227 103.994 97.1227 101.529V100.842C97.1227 98.3771 95.1171 96.3716 92.652 96.3716ZM90.9782 34.8797H88.0031V29.0661H90.9782V34.8797ZM77.3064 11.4435L85.4104 19.4374H77.3064V11.4435ZM71.025 4.47044C71.025 3.85121 71.5289 3.34729 72.1482 3.34729H72.8355C73.4548 3.34729 73.9587 3.85121 73.9587 4.47044V19.4372H71.025V4.47044ZM16.369 33.7566V29.0661H19.3026V33.7566C19.3026 34.3758 18.7987 34.8797 18.1795 34.8797H17.4921C16.8729 34.8797 16.369 34.3758 16.369 33.7566ZM19.0722 61.4867C19.0722 61.7798 18.9283 62.038 18.7095 62.2009C18.6882 62.2171 18.6629 62.2332 18.6362 62.2496C18.62 62.2591 18.6035 62.2678 18.5867 62.2765C18.5608 62.2901 18.5347 62.304 18.5051 62.3158C18.4793 62.3262 18.4517 62.333 18.4248 62.3409C18.401 62.3479 18.3791 62.3568 18.3532 62.3618C18.2969 62.373 18.2389 62.3794 18.1793 62.3794C18.1196 62.3794 18.0619 62.373 18.0054 62.3618C17.9797 62.3566 17.9578 62.3479 17.9339 62.3409C17.907 62.333 17.8795 62.3262 17.8536 62.3158C17.824 62.3038 17.7979 62.2901 17.772 62.2763C17.7553 62.2676 17.7387 62.2591 17.7228 62.2496C17.6963 62.2332 17.671 62.2171 17.6495 62.2009C17.4309 62.038 17.2868 61.7798 17.2868 61.4867C17.2868 60.9943 17.6872 60.5939 18.1795 60.5939C18.6718 60.5941 19.0722 60.9943 19.0722 61.4867ZM12.2246 82.7472V81.1419H24.1343V82.7472H12.2246ZM24.1343 71.9807V77.7942H12.2246V71.9807H24.1343ZM21.4852 68.6336H14.8738L17.1644 65.6045C17.2056 65.6149 17.2476 65.6223 17.2895 65.6312C17.3106 65.6358 17.3317 65.6405 17.353 65.6449C17.4714 65.6683 17.5911 65.6867 17.712 65.6998C17.7426 65.7031 17.7735 65.7053 17.8043 65.708C17.9151 65.7176 18.0261 65.724 18.1375 65.725C18.1515 65.7252 18.1654 65.7273 18.1795 65.7273C18.1936 65.7273 18.2074 65.7252 18.2215 65.725C18.3329 65.724 18.4441 65.7176 18.5546 65.708C18.5855 65.7053 18.6165 65.7031 18.647 65.6998C18.7677 65.6865 18.8875 65.6681 19.006 65.6449C19.0273 65.6405 19.0484 65.636 19.0695 65.6312C19.1113 65.6223 19.1532 65.6147 19.1946 65.6045L21.4852 68.6336ZM46.9418 30.9687H22.6501V29.0661H46.9418V30.9687ZM62.1991 34.8797H50.2891V29.0661H62.1991V34.8797ZM48.6153 25.7186H20.9765H14.6953H13.6676C13.0482 25.7186 12.5443 25.2146 12.5443 24.5954V23.9081C12.5443 23.2888 13.0482 22.7849 13.6674 22.7849H17.83C17.8319 22.7849 17.8335 22.7853 17.8354 22.7853C17.8373 22.7853 17.8391 22.7849 17.841 22.7849H56.8682C57.7928 22.7849 58.5418 22.0357 58.5418 21.1113C58.5418 20.1869 57.7928 19.4376 56.8682 19.4376H28.9981L67.6777 7.57158V19.4376H62.7446C61.82 19.4376 61.0709 20.1869 61.0709 21.1113C61.0709 22.0357 61.82 22.7849 62.7446 22.7849H69.3514H75.6323H92.6518C93.271 22.7849 93.775 23.2888 93.775 23.9081V24.5954C93.775 25.2146 93.271 25.7186 92.6518 25.7186H86.3292H81.111H81.0913C81.0905 25.7186 81.0897 25.7186 81.0889 25.7186H63.8723H48.6153ZM67.3639 68.6336L72.4919 62.2508L77.6196 68.6336H67.3639ZM77.6198 71.9809L72.4921 78.3637L67.3643 71.9809H77.6198ZM65.5463 65.5515V53.6054L70.3451 59.5784L65.5463 65.5515ZM67.3641 50.5237H77.6198L72.4921 56.9065L67.3641 50.5237ZM67.3641 47.1762L72.4921 40.7934L77.62 47.1762H67.3641ZM67.3641 29.0661H77.6198L72.4921 35.4489L67.3641 29.0661ZM70.3451 38.1212L65.5463 44.0945V36.5534V32.1479L70.3451 38.1212ZM65.5463 75.0628L70.3451 81.0359L65.5463 87.0089V75.0628ZM72.4919 83.7082L77.6196 90.0908H67.3641L72.4919 83.7082ZM74.639 81.0359L79.4378 75.0628V87.0089L74.639 81.0359ZM74.639 59.5784L79.4378 53.6054V65.5515L74.639 59.5784ZM74.639 38.121L79.4378 32.1477V44.0941L74.639 38.121ZM93.7752 101.53C93.7752 102.149 93.2712 102.653 92.652 102.653H52.3321C51.7129 102.653 51.209 102.149 51.209 101.53V100.842C51.209 100.223 51.7129 99.7191 52.3321 99.7191H53.9333C53.9364 99.7191 53.9395 99.7191 53.9426 99.7191H78.8862C79.8109 99.7191 80.5599 98.97 80.5599 98.0454C80.5599 97.1208 79.8109 96.3718 78.8862 96.3718H56.8464L58.5141 93.4381H63.8727H81.1112H86.4696L88.1373 96.3718H84.9113C83.9867 96.3718 83.2376 97.1208 83.2376 98.0454C83.2376 98.97 83.9867 99.7191 84.9113 99.7191H91.0123C91.0134 99.7191 91.0148 99.7193 91.0158 99.7193C91.0169 99.7193 91.0183 99.7191 91.0194 99.7191H92.6518C93.271 99.7191 93.775 100.223 93.775 100.842V101.53H93.7752Z" fill="#EB7E1B"/>
</svg>
