<?xml version="1.0" encoding="utf-8"?>
<!-- Generator: Adobe Illustrator 27.3.1, SVG Export Plug-In . SVG Version: 6.00 Build 0)  -->
<svg version="1.1" xmlns="http://www.w3.org/2000/svg" xmlns:xlink="http://www.w3.org/1999/xlink" x="0px" y="0px"
	 viewBox="0 0 122.4 122.4" style="enable-background:new 0 0 122.4 122.4;" xml:space="preserve">
<style type="text/css">
	.st0{display:none;}
	.st1{display:inline;}
	.st2{clip-path:url(#SVGID_00000137096970616720182010000000259316735899359364_);}
	.st3{fill:#EB7F23;}
	.st4{fill:#EB7E24;}
</style>
<g id="Layer_1" class="st0">
	<g class="st1">
		<defs>
			<rect id="SVGID_1_" x="1.7" y="1.7" width="119" height="119"/>
		</defs>
		<clipPath id="SVGID_00000085231380930497251070000000558780137041602469_">
			<use xlink:href="#SVGID_1_"  style="overflow:visible;"/>
		</clipPath>
		<g style="clip-path:url(#SVGID_00000085231380930497251070000000558780137041602469_);">
			<path class="st3" d="M70.72,8.22L70.72,8.22l29.41,11.22L70.72,8.22z M70.72,8.22C70,7.94,69.09,7.41,68.23,6.79
				c-0.85-0.62-1.64-1.32-2.13-1.92l0,0 M70.72,8.22L66.1,4.87 M66.1,4.87l-1.26-1.55l0,0 M66.1,4.87l-1.26-1.55 M64.84,3.32
				c-0.93-1.14-2.19-1.77-3.54-1.77c-1.42,0-2.75,0.72-3.66,1.95l0,0 M64.84,3.32l-7.2,0.18 M57.65,3.5l-0.67,0.91v0 M57.65,3.5
				l-0.67,0.91 M56.98,4.41c-0.45,0.62-1.2,1.33-2.02,1.95c-0.82,0.63-1.7,1.16-2.41,1.43c0,0,0,0,0,0L22.26,19.43l0,0 M56.98,4.41
				L22.26,19.43 M22.26,19.43L22.26,19.43c-0.33,0.13-0.99,0.39-1.55,0.84c-0.56,0.45-1.02,1.11-0.9,2.02c0,0.01,0,0.01-0.01,0.02
				l0,0l0,0c-0.01,0.02-0.02,0.07-0.02,0.11v11.32c0,1.04,0.84,1.88,1.88,1.88c1.04,0,1.88-0.84,1.88-1.88v-9.44h26.49l-16.7,94.34
				c-0.18,1.02,0.5,2,1.53,2.18c1.02,0.19,1.99-0.5,2.17-1.52l0,0 M22.26,19.43l14.77,99.87 M37.03,119.3L41,96.93h40.6l4.48,22.42
				l0,0L37.03,119.3z M89.76,118.6L89.76,118.6c0.2,1.02-0.46,2-1.48,2.21c0,0,0,0,0,0l-0.03-0.15L89.76,118.6z M89.76,118.6
				l-18.84-94.3h27.93v9.44c0,1.04,0.84,1.88,1.88,1.88c1.04,0,1.88-0.84,1.88-1.88V22.43c0-0.05-0.01-0.09-0.02-0.12
				c0-0.01-0.01-0.02-0.01-0.03 M89.76,118.6l12.83-96.31 M60.67,5.73L60.67,5.73l-0.67,0.91C58.68,8.45,56,10.5,53.89,11.3
				L60.67,5.73z M60.67,5.73c0.21-0.28,0.42-0.4,0.62-0.4c0.2,0,0.42,0.11,0.64,0.37c0,0,0,0,0,0l1.26,1.55c0,0,0,0,0,0
				c1.4,1.73,4.13,3.7,6.2,4.49l0,0l23.12,8.82H29.84l24.06-9.25L60.67,5.73z M102.59,22.29c0.12-0.91-0.35-1.57-0.9-2.02
				c-0.56-0.45-1.23-0.71-1.56-0.83L102.59,22.29z M46.49,65.87l2.25-12.7h7.99L46.49,65.87z M74.65,70.86H47.3l13.39-16.62
				L74.65,70.86z M60.8,80.36l-10.24-5.74h20.05L60.8,80.36z M44.76,75.67l12.28,6.89l-15.06,8.81L44.76,75.67z M60.84,84.69
				l15.11,8.48h-29.6L60.84,84.69z M77.24,75.09L80.5,91.4l-15.9-8.92L77.24,75.09z M75.41,65.91L64.7,53.17h8.16L75.41,65.91z
				 M67.36,25.62l4.75,23.79h-22.7l4.21-23.79H67.36z"/>
		</g>
	</g>
</g>
<g id="Layer_2">
	<g>
		<path class="st4" d="M100.08,19.42L63.46,5.46c-1.74-0.66-3.66-0.65-5.39,0.02L21.79,19.63c-2.21,0.86-2.01,2.67-2.01,2.67
			s0,11.27,0,11.46s0.19,1.98,1.96,1.88c1.76-0.1,1.8-1.88,1.8-1.88v-9.44h26.49c0,0-16.25,91.79-16.54,93.45s-0.15,2.76,1.47,3.08
			c1.62,0.31,2.07-1.53,2.07-1.53L41,96.93h40.6c0,0,4.25,21.25,4.48,22.42c0.23,1.16,1.55,1.69,2.75,1.27s0.94-2.01,0.94-2.01
			l-18.84-94.3h27.93c0,0,0,9.24,0,9.44c0,0.2,0,1.9,1.82,1.88c1.82-0.02,1.94-1.88,1.94-1.88s0-8.89,0-11.32
			S100.08,19.42,100.08,19.42z M48.74,53.17h7.99l-10.24,12.7L48.74,53.17z M47.3,70.86l13.39-16.62l13.96,16.62H47.3z M70.61,74.62
			l-9.81,5.74l-10.24-5.74H70.61z M44.76,75.67l12.28,6.89l-15.06,8.81L44.76,75.67z M46.36,93.16l14.48-8.48l15.11,8.48H46.36z
			 M80.49,91.36L64.7,82.55l12.54-7.46L80.49,91.36z M75.41,65.91L64.7,53.17h8.16L75.41,65.91z M72.11,49.41h-22.7l4.21-23.79
			h13.74L72.11,49.41z M29.84,20.55L58.73,9.36c1.31-0.51,2.76-0.51,4.07-0.02L92.5,20.55H29.84z"/>
	</g>
</g>
</svg>
