<svg width="140" height="388" viewBox="0 0 140 388" fill="none" xmlns="http://www.w3.org/2000/svg">
<path d="M139.563 299.313C135.528 305.828 126.879 306.796 119.994 308.55C119.227 308.747 118.46 308.944 117.693 309.142C115.694 309.656 113.695 310.168 111.696 310.679C108.864 311.403 106.033 312.131 103.201 312.858C101.697 313.245 100.193 313.63 98.6889 314.015C98.0065 314.19 97.3241 314.365 96.6416 314.539C96.1755 314.658 96.1755 314.658 95.6999 314.78C94.5141 315.084 93.3468 315.399 92.1849 315.785C89.4472 316.118 88.1023 315.201 85.9782 313.669C85.3246 313.216 84.6706 312.763 84.0162 312.311C83.6792 312.076 83.3423 311.84 82.9951 311.598C81.331 310.45 79.632 309.357 77.9324 308.263C77.2453 307.818 76.5583 307.374 75.8714 306.929C75.3583 306.597 75.3583 306.597 74.8348 306.259C73.444 305.359 72.0547 304.457 70.6654 303.554C67.8283 301.712 64.9894 299.872 62.1473 298.038C57.9108 295.303 53.6823 292.556 49.4532 289.81C45.9219 287.517 42.3901 285.225 38.8527 282.942C35.3237 280.664 31.8003 278.377 28.2775 276.09C27.1562 275.362 26.0346 274.635 24.9131 273.907C24.54 273.665 24.1669 273.423 23.7825 273.174C23.0652 272.709 22.3478 272.243 21.6304 271.778C21.1462 271.464 21.1462 271.464 20.6523 271.144C20.3683 270.96 20.0843 270.775 19.7917 270.586C19.1272 270.152 18.4663 269.714 17.8059 269.274C17.8059 269.005 17.8059 268.736 17.8059 268.458C18.4623 268.283 18.4623 268.283 19.132 268.105C23.2514 267.007 27.3707 265.908 31.4899 264.809C33.6077 264.244 35.7256 263.679 37.8435 263.114C39.8866 262.57 41.9296 262.025 43.9725 261.48C44.7528 261.271 45.5331 261.063 46.3135 260.856C47.4046 260.565 48.4956 260.274 49.5866 259.982C49.9108 259.896 50.235 259.81 50.5691 259.721C51.7836 259.396 52.985 259.064 54.1781 258.667C53.7883 258.412 53.7884 258.412 53.3908 258.153C46.6583 253.76 39.9291 249.362 33.2021 244.961C31.4656 243.825 29.7289 242.689 27.9922 241.553C26.7659 240.751 25.5398 239.949 24.3137 239.147C22.009 237.639 19.7038 236.132 17.3967 234.627C16.3124 233.92 15.2283 233.212 14.1443 232.505C13.6297 232.169 13.1149 231.833 12.6 231.498C11.884 231.032 11.1684 230.565 10.453 230.098C10.0469 229.833 9.64075 229.568 9.22234 229.295C8.81821 229.025 8.4141 228.754 7.99772 228.475C7.75573 228.344 7.51375 228.213 7.26444 228.078C6.15317 227.421 5.29824 226.914 4.87453 225.656C4.7755 224.683 4.76932 223.745 4.79296 222.767C4.79052 222.397 4.78809 222.027 4.78557 221.646C4.78086 220.406 4.79658 219.167 4.81222 217.927C4.81302 217.038 4.81257 216.149 4.81095 215.261C4.81013 212.847 4.82697 210.434 4.84693 208.021C4.8648 205.5 4.86649 202.978 4.86989 200.456C4.87879 195.681 4.90226 190.905 4.93096 186.13C4.96316 180.693 4.97866 175.257 4.99302 169.82C5.02293 158.636 5.07327 147.453 5.13699 136.269C7.37386 135.263 9.61088 134.257 11.848 133.252C12.6069 132.911 13.3657 132.57 14.1246 132.228C19.5284 129.798 24.9396 127.388 30.3727 125.024C31.699 124.446 33.0251 123.867 34.3509 123.288C34.6657 123.151 34.9804 123.013 35.3047 122.872C39.02 121.245 42.7171 119.579 46.4132 117.909C44.9281 116.403 43.3932 115.061 41.7135 113.779C39.7675 112.274 37.8605 110.737 35.992 109.138C33.9922 107.429 31.9481 105.791 29.8703 104.178C27.5908 102.402 25.3624 100.567 23.1344 98.7271C21.3234 97.2323 19.5014 95.7539 17.6623 94.2938C15.1079 92.2552 12.5765 90.1881 10.0411 88.1261C9.8014 87.9312 9.5617 87.7362 9.31474 87.5354C5.62471 84.5331 5.62471 84.5331 5.13699 84.0462C5.09346 83.08 5.07661 82.1256 5.07685 81.1591C5.07536 80.8534 5.07383 80.5477 5.07229 80.2328C5.06776 79.2005 5.0662 78.1682 5.06465 77.1359C5.06208 76.3989 5.05938 75.6618 5.05652 74.9247C5.04939 72.9158 5.04509 70.9068 5.04171 68.8979C5.03961 67.6426 5.03712 66.3873 5.03456 65.132C5.02676 61.2043 5.02096 57.2767 5.01756 53.349C5.01358 48.8161 5.00284 44.2832 4.9863 39.7504C4.97395 36.2473 4.96792 32.7443 4.96657 29.2412C4.96561 27.1491 4.96194 25.057 4.95166 22.9649C4.94212 20.9942 4.94041 19.0236 4.94461 17.0528C4.94481 16.3314 4.94226 15.6101 4.93663 14.8888C4.87775 6.88542 4.87773 6.88543 7.54594 3.50769C10.7043 0.983942 13.3283 -0.0193758 17.3973 0.407914C20.014 0.986943 22.1126 2.25735 23.6717 4.44926C25.5071 7.65553 25.4149 10.7758 25.3408 14.3543C25.3349 15.0142 25.3299 15.6741 25.3259 16.3341C25.3157 17.7482 25.2996 19.1621 25.279 20.5762C25.2474 22.8161 25.2356 25.0558 25.2275 27.2959C25.202 33.6633 25.1584 40.0303 25.0768 46.3972C25.0318 49.9192 25.0075 53.4407 25.0056 56.9629C25.0033 59.1864 24.9761 61.4077 24.9301 63.6307C24.9075 65.0184 24.9092 66.4052 24.9175 67.793C24.9166 68.4319 24.9061 69.0708 24.8846 69.7093C24.7536 73.1403 24.7536 73.1403 26.1184 76.2037C27.4565 77.5975 28.9541 78.7418 30.5377 79.8427C31.7666 80.7084 32.9277 81.6547 34.1019 82.5927C34.5771 82.9626 35.0527 83.332 35.5291 83.7003C37.1327 84.9485 38.7083 86.23 40.2831 87.5141C42.3017 89.1592 44.3324 90.7853 46.3877 92.3845C49.1203 94.5134 51.7924 96.7125 54.4638 98.9171C56.1595 100.316 57.8611 101.708 59.5675 103.094C59.8365 103.313 60.1055 103.532 60.3827 103.757C61.9085 104.993 63.4483 106.208 65.0031 107.408C74.5414 114.787 74.5414 114.787 75.1674 119.4C75.3025 122.071 74.8892 124.634 73.3858 126.885C71.1479 129.277 68.6178 130.61 65.6465 131.909C65.1941 132.112 64.7417 132.315 64.2756 132.524C62.975 133.106 61.672 133.681 60.3671 134.253C59.4469 134.656 58.5273 135.061 57.6077 135.465C54.8332 136.686 52.0577 137.904 49.2793 139.115C45.6037 140.718 41.9346 142.334 38.278 143.98C37.7409 144.221 37.7409 144.221 37.1929 144.467C35.4792 145.238 33.7667 146.011 32.0557 146.788C31.4415 147.065 30.8273 147.341 30.2131 147.618C29.9371 147.744 29.6612 147.871 29.3769 148.001C27.9726 148.63 26.673 149.052 25.1621 149.325C25.0626 157.925 25.0007 166.525 24.9832 175.126C24.9742 179.12 24.953 183.113 24.9029 187.107C24.8592 190.589 24.8387 194.07 24.8456 197.552C24.8485 199.395 24.84 201.237 24.8037 203.08C24.7244 207.12 24.8046 208.802 25.1836 210.795C25.898 214.552 28.2635 217.464 31.5 219.5C32.388 220.059 33.3105 220.616 34.2487 221.28C34.5544 221.478 34.86 221.677 35.175 221.882C35.4783 222.08 35.7816 222.279 36.0942 222.483C36.7886 222.935 37.483 223.387 38.1775 223.839C38.5247 224.065 38.8719 224.292 39.2297 224.525C40.9672 225.657 42.7068 226.786 44.4465 227.914C44.7858 228.134 45.1251 228.355 45.4747 228.581C48.4988 230.544 51.5266 232.5 54.5554 234.455C55.9965 235.385 57.4371 236.316 58.8779 237.247C59.4568 237.621 60.0358 237.995 60.6147 238.369C66.4043 242.109 72.1939 245.849 77.9834 249.589C78.4132 249.866 78.4132 249.866 78.8516 250.15C79.4315 250.524 80.0115 250.899 80.5914 251.273C82.0234 252.199 83.4555 253.123 84.8878 254.048C88.3521 256.284 91.8126 258.526 95.2709 260.771C98.3156 262.748 101.364 264.718 104.414 266.687C105.855 267.617 107.296 268.548 108.736 269.478C109.315 269.852 109.894 270.226 110.473 270.6C111.631 271.348 112.789 272.096 113.947 272.844C114.233 273.029 114.52 273.214 114.815 273.405C115.395 273.78 115.976 274.155 116.556 274.53C117.982 275.451 119.408 276.372 120.837 277.289C122.597 278.42 124.351 279.558 126.105 280.698C126.462 280.929 126.819 281.161 127.187 281.399C128.327 282.139 129.464 282.884 130.6 283.631C130.952 283.858 131.303 284.086 131.666 284.32C136.964 287.816 142.455 292.23 139.563 299.313Z" fill="#EB7E1B"/>
<path d="M140.179 359.823C140.175 360.253 140.175 360.253 140.171 360.692C140.103 362.955 139.701 364.562 138.365 366.377C138.129 366.738 137.893 367.1 137.65 367.473C135.503 369.676 132.938 370.774 130.005 371.542C129.646 371.64 129.287 371.738 128.917 371.839C127.573 372.203 126.227 372.554 124.879 372.904C124.602 372.976 124.326 373.048 124.04 373.123C119.168 374.39 114.29 375.631 109.411 376.869C106.274 377.664 103.139 378.462 100.003 379.26C99.2174 379.46 98.4317 379.66 97.646 379.859C92.7876 381.095 87.9325 382.343 83.0834 383.615C82.2278 383.84 81.3721 384.064 80.5163 384.287C77.949 384.959 75.3827 385.634 72.8181 386.315C71.925 386.549 71.032 386.783 70.1388 387.017C69.7404 387.124 69.3419 387.232 68.9314 387.342C68.5691 387.436 68.2067 387.53 67.8334 387.627C67.522 387.71 67.2105 387.792 66.8897 387.877C64.8036 388.175 63.2978 386.988 61.6109 385.909C61.3303 385.732 61.0498 385.555 60.7607 385.372C57.0081 382.991 53.2928 380.551 49.5723 378.12C47.9945 377.091 46.4127 376.068 44.8297 375.046C44.5526 374.868 44.2755 374.689 43.9901 374.505C43.4394 374.149 42.8888 373.794 42.3381 373.439C40.9034 372.514 39.4695 371.587 38.0354 370.66C37.4565 370.286 36.8775 369.912 36.2986 369.538C32.8248 367.294 29.3511 365.051 25.8773 362.807C25.5909 362.622 25.3044 362.437 25.0093 362.246C24.429 361.871 23.8487 361.496 23.2684 361.121C21.8425 360.199 20.4159 359.279 18.9873 358.362C17.5496 357.438 16.1156 356.509 14.683 355.577C13.9981 355.133 13.3118 354.692 12.6245 354.252C11.4708 353.513 10.3215 352.767 9.17271 352.02C8.63516 351.679 8.63516 351.679 8.08676 351.331C4.90036 349.244 2.26671 346.953 1.22747 343.183C0.630231 340.223 1.2279 337.58 2.73127 334.995C6.31196 330.218 13.5694 329.302 18.9793 327.942C19.8838 327.711 20.7882 327.478 21.6924 327.245C24.0586 326.637 26.4265 326.035 28.7948 325.435C32.5952 324.471 36.393 323.496 40.1911 322.523C41.5148 322.184 42.839 321.848 44.1634 321.512C44.9737 321.306 45.7841 321.1 46.5944 320.893C46.9615 320.801 47.3286 320.708 47.7068 320.613C49.3709 320.187 50.9673 319.746 52.5434 319.049C52.1947 318.835 51.8459 318.621 51.4866 318.401C46.4886 315.316 41.5807 312.094 36.6677 308.877C34.8278 307.673 32.9839 306.476 31.139 305.28C30.8115 305.067 30.4839 304.855 30.1465 304.636C29.4936 304.213 28.8407 303.79 28.1877 303.366C27.1822 302.715 26.1769 302.063 25.1717 301.41C24.833 301.19 24.4942 300.971 24.1451 300.744C23.4643 300.302 22.7835 299.86 22.1028 299.418C20.3661 298.29 18.6282 297.165 16.8881 296.043C15.178 294.939 13.4713 293.831 11.768 292.717C11.1901 292.339 10.6114 291.962 10.032 291.586C5.75883 288.807 2.45439 286.188 1.05028 281.106C0.780594 278.876 1.12923 276.92 2.27631 274.986C4.06859 273.011 5.93533 271.53 8.64272 271.177C15.7968 271.073 22.2232 276.961 27.9693 280.716C30.9299 282.65 33.9041 284.561 36.886 286.461C40.9893 289.077 45.0764 291.716 49.1553 294.37C51.5015 295.894 53.8536 297.41 56.2045 298.927C57.0221 299.455 57.8391 299.984 58.656 300.513C62.0761 302.727 65.5063 304.925 68.9415 307.116C72.6613 309.488 76.3649 311.884 80.0587 314.296C83.3863 316.467 86.7332 318.607 90.0833 320.742C93.7541 323.084 97.4075 325.451 101.057 327.825C103.403 329.35 105.755 330.865 108.106 332.382C108.924 332.91 109.741 333.439 110.558 333.968C111.109 334.325 111.659 334.681 112.21 335.038C112.631 335.31 112.631 335.31 113.06 335.587C114.786 336.703 116.518 337.811 118.252 338.914C120.875 340.581 123.491 342.257 126.105 343.937C126.557 344.227 127.009 344.516 127.475 344.815C128.81 345.673 130.14 346.538 131.469 347.405C131.873 347.663 132.277 347.922 132.693 348.188C137.098 351.085 140.262 354.246 140.179 359.823ZM131.009 353.729C130.315 353.261 129.613 352.804 128.905 352.357C128.499 352.099 128.093 351.841 127.675 351.576C127.024 351.165 127.024 351.165 126.36 350.745C125.433 350.157 124.506 349.567 123.58 348.978C123.345 348.829 123.11 348.68 122.869 348.526C120.599 347.081 118.345 345.613 116.092 344.141C112.835 342.013 109.565 339.908 106.284 337.817C102.614 335.478 98.9606 333.116 95.3171 330.736C92.4453 328.863 89.5596 327.012 86.6678 325.169C83.3869 323.079 80.1167 320.973 76.8596 318.845C73.148 316.421 69.4175 314.028 65.6793 311.645C62.0085 309.303 58.3551 306.936 54.7055 304.562C52.3593 303.038 50.0072 301.522 47.6563 300.005C46.8387 299.477 46.0217 298.948 45.2048 298.419C41.7847 296.205 38.3546 294.007 34.9193 291.816C31.5356 289.658 28.1641 287.483 24.8046 285.288C21.8455 283.356 18.8777 281.439 15.8903 279.551C15.4096 279.246 15.4096 279.246 14.9191 278.935C14.6227 278.749 14.3263 278.562 14.0209 278.37C13.6356 278.127 13.6356 278.127 13.2424 277.879C11.2847 276.717 10.3062 276.482 7.99777 277.026C7.15425 277.426 7.15425 277.426 6.77174 278.25C6.4619 280.003 6.66406 281.188 7.61464 282.662C9.4785 284.922 12.0415 286.375 14.4987 287.913C15.623 288.619 16.7357 289.342 17.8491 290.065C18.7178 290.629 19.5883 291.19 20.4592 291.751C22.413 293.009 24.3625 294.273 26.3115 295.539C26.6533 295.761 26.995 295.983 27.3471 296.211C28.0426 296.663 28.738 297.114 29.4335 297.566C31.1427 298.675 32.8522 299.785 34.5617 300.894C35.2428 301.336 35.9239 301.778 36.6051 302.22C36.9422 302.439 37.2794 302.657 37.6268 302.883C41.373 305.314 45.1191 307.745 48.8653 310.176C49.203 310.395 49.5406 310.614 49.8884 310.84C50.5649 311.279 51.2414 311.718 51.9178 312.157C53.6916 313.308 55.4656 314.458 57.24 315.609C57.7924 315.967 57.7924 315.967 58.3559 316.332C59.0582 316.788 59.7606 317.243 60.4631 317.698C61.0871 318.103 61.7107 318.508 62.3337 318.914C62.8644 319.259 63.3966 319.602 63.9309 319.942C65.5764 321 65.5764 321 66.0297 321.905C65.5618 321.955 65.094 322.005 64.6119 322.057C62.7948 322.285 61.0596 322.692 59.2903 323.156C58.9593 323.241 58.6284 323.326 58.2874 323.414C57.1965 323.695 56.1064 323.979 55.0162 324.263C54.2417 324.463 53.4671 324.663 52.6925 324.863C51.0628 325.284 49.4335 325.706 47.8044 326.129C45.7655 326.659 43.7259 327.187 41.6861 327.713C36.9627 328.933 32.2421 330.162 27.5234 331.4C26.3948 331.695 25.2659 331.99 24.137 332.285C22.3685 332.747 20.601 333.213 18.8344 333.682C18.1873 333.853 17.54 334.023 16.8923 334.192C11.7131 335.432 11.7131 335.432 7.18042 338.098C6.5292 339.601 6.37915 341.119 6.77174 342.713C8.39709 345.191 10.7319 346.538 13.2084 348.093C13.6278 348.361 14.0472 348.63 14.4793 348.906C15.3274 349.448 16.1764 349.988 17.0265 350.527C18.6384 351.55 20.24 352.588 21.8417 353.627C22.3982 353.986 22.9548 354.345 23.5115 354.704C25.2202 355.806 26.9281 356.909 28.6359 358.013C29.2148 358.387 29.7938 358.761 30.3728 359.135C39.0571 364.745 39.0571 364.745 47.7415 370.354C48.1715 370.632 48.1715 370.632 48.6101 370.916C49.1884 371.289 49.7667 371.663 50.345 372.036C51.8017 372.978 53.2591 373.918 54.7177 374.857C55.0124 375.047 55.3072 375.236 55.6109 375.432C56.155 375.782 56.6993 376.133 57.244 376.482C57.5019 376.648 57.7597 376.815 58.0254 376.986C58.2952 377.152 58.565 377.318 58.843 377.49C59.6752 378.056 60.3923 378.623 61.1487 379.278C63.1554 380.929 65.111 382.505 67.8275 382.288C69.8903 381.934 71.8614 381.284 73.8488 380.642C74.6122 380.418 75.3765 380.197 76.1416 379.979C77.7781 379.511 79.4105 379.031 81.0416 378.544C84.9605 377.389 88.9281 376.423 92.8923 375.438C95.1653 374.871 97.4352 374.292 99.7056 373.715C100.619 373.483 101.533 373.251 102.446 373.019C102.901 372.904 103.355 372.789 103.823 372.67C105.23 372.313 106.636 371.957 108.043 371.601C110.347 371.018 112.652 370.433 114.956 369.848C115.818 369.629 116.681 369.41 117.543 369.192C126.582 367.508 126.582 367.508 134.023 362.807C135.934 358.991 134.171 356.095 131.009 353.729Z" fill="#EB7E1B"/>
<path d="M71.0923 164.648C71.0963 165.1 71.1004 165.551 71.1045 166.016C71.1027 166.507 71.1009 166.998 71.099 167.504C71.1018 168.024 71.1046 168.545 71.1075 169.081C71.1148 170.505 71.1143 171.93 71.112 173.355C71.1107 174.546 71.1132 175.737 71.1157 176.928C71.1214 179.74 71.1208 182.552 71.1161 185.364C71.1114 188.26 71.1172 191.156 71.1281 194.052C71.1372 196.542 71.1399 199.032 71.1375 201.523C71.1361 203.008 71.1371 204.493 71.1441 205.979C71.1517 207.637 71.1459 209.295 71.1389 210.954C71.1428 211.442 71.1468 211.931 71.1508 212.434C71.1222 215.676 70.6697 217.844 68.5536 220.4C66.0196 222.58 63.6835 223.757 60.2827 223.554C57.2087 223.102 55.1064 221.906 53.0846 219.569C51.1201 216.353 51.1478 213.373 51.1782 209.693C51.1786 209.118 51.1784 208.543 51.1777 207.967C51.1773 206.414 51.1845 204.861 51.1931 203.307C51.2008 201.681 51.2015 200.055 51.2029 198.428C51.2067 195.352 51.2168 192.276 51.2291 189.2C51.2428 185.696 51.2496 182.192 51.2557 178.688C51.2685 171.484 51.2901 164.281 51.3174 157.077C52.2168 157.139 53.1161 157.202 54.0154 157.265C54.7666 157.317 54.7666 157.317 55.533 157.371C57.7358 157.537 59.9279 157.764 62.1218 158.02C62.7488 158.084 62.7488 158.084 63.3885 158.15C65.8812 158.444 67.6775 158.832 69.7078 160.341C70.7785 161.815 71.0877 162.839 71.0923 164.648Z" fill="#EB7E1B"/>
<path d="M71.099 33.1517C71.1018 33.6058 71.1046 34.0599 71.1075 34.5278C71.1149 36.0238 71.1134 37.5197 71.111 39.0157C71.1129 40.0577 71.1151 41.0997 71.1175 42.1417C71.1212 44.3232 71.1203 46.5047 71.1161 48.6863C71.1114 51.2043 71.1172 53.7223 71.1281 56.2403C71.1383 58.6686 71.1393 61.0968 71.1367 63.5252C71.1366 64.556 71.1391 65.5868 71.1441 66.6176C71.1502 68.0581 71.1459 69.4982 71.1389 70.9387C71.1448 71.5769 71.1448 71.5769 71.1508 72.2279C71.1267 74.5936 70.9703 76.1036 69.2991 77.9263C66.6884 79.7753 63.9778 79.373 60.9205 78.9542C59.4508 78.7026 57.9899 78.4234 56.528 78.1303C56.0239 78.033 55.5197 77.9357 55.0003 77.8354C53.7718 77.5978 52.5443 77.356 51.3174 77.1103C51.2887 70.9499 51.2671 64.7894 51.2539 58.6289C51.2476 55.7682 51.239 52.9076 51.2249 50.0469C51.2113 47.2851 51.2043 44.5234 51.2011 41.7616C51.1988 40.709 51.1944 39.6564 51.1878 38.6039C51.1788 37.1272 51.1776 35.6507 51.1782 34.1741C51.1716 33.5243 51.1716 33.5243 51.1649 32.8615C51.1775 29.8037 51.6153 27.2134 53.2331 24.5814C55.9177 21.9737 58.555 21.0393 62.2654 21.0752C64.8491 21.3513 67.1172 22.4966 68.8649 24.4284C70.8327 27.4049 71.1142 29.6413 71.099 33.1517Z" fill="#EB7E1B"/>
<path d="M47.6994 158.49C47.7038 159.08 47.7038 159.08 47.7083 159.682C47.7094 160.117 47.7105 160.553 47.7116 161.001C47.7143 161.457 47.717 161.913 47.7197 162.382C47.7278 163.899 47.7326 165.416 47.7366 166.932C47.7391 167.708 47.7391 167.708 47.7417 168.499C47.7494 170.956 47.7553 173.413 47.7587 175.869C47.7627 178.701 47.7734 181.532 47.79 184.364C47.8038 186.818 47.8086 189.273 47.8103 191.728C47.8123 192.77 47.817 193.813 47.8246 194.855C47.8346 196.317 47.8342 197.779 47.8313 199.241C47.8366 199.67 47.8418 200.098 47.8472 200.54C47.8262 203.512 47.356 206.123 45.3447 208.422C43.4126 210.294 41.1116 211.279 38.4233 211.378C35.3014 211.189 33.2517 210.202 31.1645 207.897C29.7011 206.172 29.146 204.506 29.1506 202.253C29.1494 201.828 29.1483 201.403 29.1472 200.965C29.1501 200.503 29.153 200.041 29.1561 199.565C29.1559 199.076 29.1558 198.586 29.1557 198.081C29.1562 196.742 29.1603 195.403 29.166 194.063C29.1711 192.662 29.1716 191.261 29.1725 189.86C29.1751 187.209 29.1818 184.558 29.19 181.906C29.1991 178.887 29.2036 175.868 29.2077 172.848C29.2163 166.639 29.2306 160.43 29.2489 154.221C30.5501 154.349 31.8513 154.479 33.1525 154.608C33.5178 154.644 33.8831 154.68 34.2595 154.717C37.1151 155.001 39.9642 155.318 42.8118 155.674C43.2393 155.725 43.6668 155.777 44.1073 155.83C44.5116 155.88 44.9159 155.93 45.3325 155.982C45.6892 156.026 46.046 156.07 46.4135 156.115C47.9338 156.386 47.6923 157.097 47.6994 158.49Z" fill="#EB7E1B"/>
<path d="M47.732 38.7773C47.7321 39.1836 47.7323 39.5898 47.7324 40.0084C47.7318 41.3462 47.7255 42.6839 47.7191 44.0216C47.7175 44.9511 47.7164 45.8807 47.7156 46.8102C47.7124 49.253 47.7044 51.6958 47.6954 54.1385C47.687 56.6327 47.6833 59.1269 47.6791 61.621C47.6704 66.5122 47.6564 71.4033 47.6392 76.2944C44.9549 76.0792 42.314 75.7964 39.6653 75.3111C39.3632 75.2573 39.0612 75.2036 38.75 75.1482C37.8048 74.9795 36.8601 74.8083 35.9154 74.6369C35.2664 74.5207 34.6175 74.4046 33.9686 74.2887C32.3949 74.0073 30.8218 73.7235 29.2488 73.4385C29.2109 68.3881 29.1819 63.3377 29.1641 58.2873C29.1556 55.942 29.1441 53.5968 29.1255 51.2515C29.1077 48.9871 29.098 46.7227 29.0937 44.4582C29.0907 43.5954 29.0848 42.7327 29.076 41.87C29.0641 40.6589 29.0625 39.4483 29.0632 38.2372C29.0574 37.8827 29.0515 37.5282 29.0454 37.163C29.0639 34.415 29.804 32.342 31.5396 30.1961C33.9365 28.1932 36.3301 27.1757 39.4913 27.3354C42.1652 27.7209 44.1586 28.9967 45.9535 30.9818C47.7077 33.5059 47.755 35.8105 47.732 38.7773Z" fill="#EB7E1B"/>
</svg>
