<svg width="93" height="93" viewBox="0 0 93 93" fill="none" xmlns="http://www.w3.org/2000/svg">
<path d="M29.0625 56.6719H43.5938C44.4075 56.6719 45.0469 56.0296 45.0469 55.2188V40.6875C45.0469 39.8737 44.4075 39.2344 43.5938 39.2344H29.0625C28.2487 39.2344 27.6094 39.8737 27.6094 40.6875V55.2188C27.6094 56.0296 28.2487 56.6719 29.0625 56.6719Z" stroke="#EB7E1B" stroke-width="3.7" stroke-miterlimit="10" stroke-linecap="round" stroke-linejoin="round"/>
<path d="M74.1094 42.1406V56.6719C74.1094 58.2703 75.4172 59.5781 77.0156 59.5781H88.6406V39.2344H77.0156C75.4172 39.2344 74.1094 40.5422 74.1094 42.1406Z" stroke="#EB7E1B" stroke-width="3.7" stroke-miterlimit="10" stroke-linecap="round" stroke-linejoin="round"/>
<path d="M52.3125 56.6719H66.8438C67.6575 56.6719 68.2969 56.0296 68.2969 55.2188V40.6875C68.2969 39.8737 67.6575 39.2344 66.8438 39.2344H52.3125C51.4987 39.2344 50.8594 39.8737 50.8594 40.6875V55.2188C50.8594 56.0296 51.4987 56.6719 52.3125 56.6719Z" stroke="#EB7E1B" stroke-width="3.7" stroke-miterlimit="10" stroke-linecap="round" stroke-linejoin="round"/>
<path d="M4.35938 10.1719H88.6406" stroke="#EB7E1B" stroke-width="3.7" stroke-miterlimit="10" stroke-linecap="round" stroke-linejoin="round"/>
<path d="M47.9531 82.8281H4.35938" stroke="#EB7E1B" stroke-width="3.7" stroke-miterlimit="10" stroke-linecap="round" stroke-linejoin="round"/>
<path d="M8.72166 39.2344H7.26562C5.66719 39.2344 4.35938 40.5422 4.35938 42.1406V82.8281" stroke="#EB7E1B" stroke-width="3.7" stroke-miterlimit="10" stroke-linecap="round" stroke-linejoin="round"/>
<path d="M13.0781 39.2344H18.8906C20.4891 39.2344 21.7969 40.5422 21.7969 42.1406V82.8281" stroke="#EB7E1B" stroke-width="3.7" stroke-miterlimit="10" stroke-linecap="round" stroke-linejoin="round"/>
<path d="M13.0781 59.5781H21.7969" stroke="#EB7E1B" stroke-width="3.7" stroke-miterlimit="10" stroke-linecap="round" stroke-linejoin="round"/>
<path d="M5.8125 59.5781H8.71875" stroke="#EB7E1B" stroke-width="3.7" stroke-miterlimit="10" stroke-linecap="round" stroke-linejoin="round"/>
<path d="M13.0781 39.2344V82.8281" stroke="#EB7E1B" stroke-width="3.7" stroke-miterlimit="10" stroke-linecap="round" stroke-linejoin="round"/>
<path d="M4.35938 30.5156H79.9219C84.7462 30.5156 88.6406 34.41 88.6406 39.2344V79.9219C88.6406 81.5203 87.3328 82.8281 85.7344 82.8281H68.2969" stroke="#EB7E1B" stroke-width="3.7" stroke-miterlimit="10" stroke-linecap="round" stroke-linejoin="round"/>
<path d="M61.0312 88.6406H30.5156" stroke="#EB7E1B" stroke-width="3.7" stroke-miterlimit="10" stroke-linecap="round" stroke-linejoin="round"/>
<path d="M24.9938 88.6406H24.7031" stroke="#EB7E1B" stroke-width="3.7" stroke-miterlimit="10" stroke-linecap="round" stroke-linejoin="round"/>
<path d="M61.0312 88.6406C65.0439 88.6406 68.2969 85.3877 68.2969 81.375C68.2969 77.3623 65.0439 74.1094 61.0312 74.1094C57.0186 74.1094 53.7656 77.3623 53.7656 81.375C53.7656 85.3877 57.0186 88.6406 61.0312 88.6406Z" stroke="#EB7E1B" stroke-width="3.7" stroke-miterlimit="10" stroke-linecap="round" stroke-linejoin="round"/>
<path d="M61.0312 82.8281C61.8338 82.8281 62.4844 82.1775 62.4844 81.375C62.4844 80.5725 61.8338 79.9219 61.0312 79.9219C60.2287 79.9219 59.5781 80.5725 59.5781 81.375C59.5781 82.1775 60.2287 82.8281 61.0312 82.8281Z" stroke="#EB7E1B" stroke-width="3.7" stroke-miterlimit="10" stroke-linecap="round" stroke-linejoin="round"/>
<path d="M24.9938 88.6406H24.7031" stroke="#EB7E1B" stroke-width="3.7" stroke-miterlimit="10" stroke-linecap="round" stroke-linejoin="round"/>
<path d="M24.8513 14.6736L55.2188 30.5156" stroke="#EB7E1B" stroke-width="3.7" stroke-miterlimit="10" stroke-linecap="round" stroke-linejoin="round"/>
<path d="M13.1246 14.6184L35.2673 26.1708" stroke="#EB7E1B" stroke-width="3.7" stroke-miterlimit="10" stroke-linecap="round" stroke-linejoin="round"/>
<path d="M88.6406 71.2031H82.8281V77.0156H88.6406V71.2031Z" stroke="#EB7E1B" stroke-width="3.7" stroke-miterlimit="10" stroke-linecap="round" stroke-linejoin="round"/>
</svg>
