<svg width="159" height="75" viewBox="0 0 159 75" fill="none" xmlns="http://www.w3.org/2000/svg">
<path d="M11.7072 42.4814C11.7072 44.543 13.4528 46.2139 15.6062 46.2139C15.6649 46.2139 30.127 46.2139 30.1996 46.2139C30.8909 42.4046 31.1536 40.5558 31.5027 38.7523C31.4267 38.7523 15.6891 38.7523 15.6062 38.7523C13.4528 38.7523 11.7072 40.4233 11.7072 42.4814Z" fill="#EB7E1B"/>
<path d="M9.20471 33.1639C9.20471 35.2256 11.1058 36.8965 13.4493 36.8965C13.515 36.8965 31.5788 36.8965 31.6583 36.8965C32.4083 33.0872 33.428 29.4349 30.7561 29.4349C30.6732 29.4349 13.5392 29.4349 13.4493 29.4349C11.1058 29.4349 9.20471 31.1023 9.20471 33.1639Z" fill="#EB7E1B"/>
<path d="M61.2322 47.864C52.8813 29.0616 53.1163 27.6628 49.7704 27.6628C46.3208 27.6628 47.064 28.5837 31.2746 48.0698C31.1985 48.0698 4.75269 48.0698 4.67319 48.0698C2.51977 48.0698 0.774231 49.7407 0.774231 51.8023C0.774231 53.864 2.51977 55.5349 4.67319 55.5349C4.73195 55.5349 34.821 55.5349 34.8936 55.5349C35.4189 54.8965 47.8797 39.3768 48.3844 38.7558C48.4293 38.8291 55.8574 55.3535 56.006 55.6814H92.614L105.766 35.5116L109.859 50.6616L128.828 21.2128L124.445 4.15118C124.338 3.73955 124.179 3.34188 123.965 2.9756C123.463 2.12444 122.447 0.83374 120.885 0.83374C118.552 0.83374 117.874 2.00234 116.792 3.63839C115.71 5.27444 88.4869 47.8954 88.4869 47.8954L61.2322 47.864Z" fill="#EB7E1B"/>
<path d="M86.2333 42.4814C86.2333 40.4198 84.232 38.7488 81.7605 38.7488C81.6914 38.7488 64.471 38.7488 64.3881 38.7488C63.9595 42.6384 63.7348 44.3581 63.5343 46.2105C63.6207 46.2105 81.6672 46.2105 81.7605 46.2105C84.232 46.214 86.2333 44.543 86.2333 42.4814Z" fill="#EB7E1B"/>
<path d="M91.1485 33.164C91.1485 35.2256 90.0666 36.8965 87.4742 36.8965C87.4016 36.8965 64.7026 36.8965 64.6162 36.8965C65.4043 29.4349 65.4734 29.4314 67.9967 29.4907C68.09 29.4907 87.4431 29.4349 87.5399 29.4349C90.1323 29.4314 91.1485 31.1023 91.1485 33.164Z" fill="#EB7E1B"/>
<path d="M142.398 3.69418L111.991 51.3942C111.469 52.2139 111.12 53.1453 111.03 54.1151C110.937 55.1477 111.106 56.3233 112.154 56.9058C114.252 58.0674 116.398 57.8791 118.375 54.9279C120.066 52.4023 130.345 36.2965 130.345 36.2965L135.485 55.2035C135.485 55.2035 136.567 57.4256 138.731 57.4744C140.895 57.5232 141.977 56.2953 143.193 54.6593C144.41 53.0198 158.302 31.4546 158.302 31.4546L151.05 3.73255C150.867 3.04185 150.504 2.41046 149.989 1.92557C149.495 1.45813 148.634 0.976737 147.725 0.837202C145.768 0.530225 143.895 1.31511 142.398 3.69418Z" fill="#EB7E1B"/>
<path d="M3.60167 61.4965H6.03851L8.8694 70.5907H6.71254L5.53386 65.986C5.28499 65.0756 5.04304 64.0011 4.80108 63.0523H4.74577C4.52801 64.0116 4.28606 65.0756 4.03719 65.986L2.85506 70.5907H0.774231L3.60167 61.4965ZM2.6373 66.8267H6.97177V68.4244H2.6373V66.8267Z" fill="#F7F3E6"/>
<path d="M9.28418 66.0035C9.28418 63.0314 10.9468 61.329 13.3767 61.329C15.8066 61.329 17.4692 63.0453 17.4692 66.0035C17.4692 68.9756 15.8066 70.7581 13.3767 70.7581C10.9468 70.7581 9.28418 68.9756 9.28418 66.0035ZM15.3815 66.0035C15.3815 64.179 14.6072 63.1046 13.3767 63.1046C12.1462 63.1046 11.3719 64.1825 11.3719 66.0035C11.3719 67.8279 12.1462 68.9825 13.3767 68.9825C14.6038 68.9825 15.3815 67.8279 15.3815 66.0035Z" fill="#F7F3E6"/>
<path d="M28.6165 70.3011L28.9829 68.522C29.1454 68.5779 29.2975 68.6302 29.6639 68.6302C30.0579 68.6302 30.3586 68.5081 30.528 68.2116L30.6628 67.936L27.6072 61.2209H29.7641L30.8149 63.8755L31.565 66.0488H31.6203L32.3392 63.8755L33.2932 61.2209H35.336L32.5535 68.25C31.997 69.6313 31.1778 70.4825 29.771 70.4825C29.2422 70.4825 28.8862 70.4093 28.6165 70.3011Z" fill="#F7F3E6"/>
<path d="M36.3211 61.2244H39.4181C41.4022 61.2244 42.9991 61.9395 42.9991 64.1477C42.9991 66.286 41.3815 67.2314 39.4735 67.2314H38.3605V70.3151H36.3246V61.2244H36.3211ZM39.3525 65.5988C40.4724 65.5988 41.0012 65.0965 41.0012 64.1477C41.0012 63.1953 40.3963 62.8535 39.2972 62.8535H38.3605V65.5953H39.3525V65.5988Z" fill="#F7F3E6"/>
<path d="M45.5466 61.2244H47.9834L50.8143 70.3186H48.6574L47.4787 65.7139C47.2299 64.8035 46.9879 63.729 46.746 62.7802H46.6907C46.4729 63.7395 46.2309 64.8035 45.9821 65.7139L44.7999 70.3186H42.7191L45.5466 61.2244ZM44.5822 66.5511H48.9167V68.1488H44.5822V66.5511Z" fill="#F7F3E6"/>
<path d="M50.8109 70.35L51.1772 68.5011C51.2913 68.5325 51.4019 68.5604 51.5644 68.5604C52.0172 68.5604 52.3352 68.3407 52.7534 66.3872C53.1164 64.6883 53.4032 62.972 53.7212 61.2209H58.9717V70.3151H56.9358V62.9476H55.287C55.0658 64.2383 54.8515 65.4069 54.6268 66.6034C54.0427 69.6593 53.2995 70.4825 51.8616 70.4825C51.3846 70.4825 51.1012 70.4546 50.8109 70.35Z" fill="#F7F3E6"/>
<path d="M60.337 69.15L61.412 67.8593C61.9028 68.3407 62.5181 68.7104 63.3166 68.7104C64.6197 68.7104 65.425 67.8523 65.425 65.7418C65.425 63.7151 64.6335 62.8325 63.2716 62.8325C62.5907 62.8325 62.0653 63.1081 61.5503 63.5546L60.4753 62.236C61.132 61.6081 62.1897 61.0569 63.3822 61.0569C65.6704 61.0569 67.4367 62.6023 67.4367 65.8221C67.4367 69.0418 65.5944 70.4825 63.3408 70.4825C62.1655 70.4825 61.1459 70.0255 60.337 69.15ZM62.2485 64.7721H66.2892V66.4953H62.2485V64.7721Z" fill="#F7F3E6"/>
<path d="M67.7755 70.35L68.1418 68.5011C68.2559 68.5325 68.3665 68.5604 68.529 68.5604C68.9818 68.5604 69.2998 68.3407 69.718 66.3872C70.0809 64.6883 70.3678 62.972 70.6858 61.2209H75.9363V70.3151H73.9004V62.9476H72.2516C72.0304 64.2383 71.8161 65.4069 71.5914 66.6034C71.0073 69.6593 70.2641 70.4825 68.8262 70.4825C68.3492 70.4825 68.0658 70.4546 67.7755 70.35Z" fill="#F7F3E6"/>
<path d="M78.0621 61.2244H83.7066V62.9477H80.098V64.7721H83.1708V66.4953H80.098V68.5883H83.8448V70.3116H78.0621V61.2244Z" fill="#F7F3E6"/>
<path d="M85.6387 61.2244H87.6746V64.7965H89.8522L93.2016 70.3151H91.0586L88.6666 66.45H87.6746V70.3151H85.6387V61.2244ZM88.4765 65.1453L89.8419 62.7C90.5297 61.4686 91.2003 61.0569 92.2269 61.0569C92.4757 61.0569 92.7661 61.0849 92.9631 61.1825L92.6313 63.0349C92.4792 62.9825 92.3236 62.979 92.2407 62.979C91.8294 62.979 91.5943 63.1639 91.2314 63.8058L90.2324 65.5535L88.4765 65.1453Z" fill="#F7F3E6"/>
<path d="M96.0014 62.9477H93.5231V61.2244H100.519V62.9477H98.0407V70.3151H96.0049V62.9477H96.0014Z" fill="#F7F3E6"/>
<path d="M101.926 61.2244H105.023C107.007 61.2244 108.604 61.9395 108.604 64.1477C108.604 66.286 106.986 67.2314 105.078 67.2314H103.965V70.3151H101.929V61.2244H101.926ZM104.957 65.5988C106.077 65.5988 106.606 65.0965 106.606 64.1477C106.606 63.1953 106.001 62.8535 104.902 62.8535H103.965V65.5953H104.957V65.5988Z" fill="#F7F3E6"/>
<path d="M109.741 65.7314C109.741 62.7593 111.404 61.0569 113.834 61.0569C116.264 61.0569 117.926 62.7732 117.926 65.7314C117.926 68.7035 116.264 70.486 113.834 70.486C111.404 70.4825 109.741 68.7 109.741 65.7314ZM115.838 65.7314C115.838 63.9069 115.064 62.8325 113.834 62.8325C112.603 62.8325 111.829 63.9104 111.829 65.7314C111.829 67.5558 112.603 68.7104 113.834 68.7104C115.061 68.7069 115.838 67.5523 115.838 65.7314Z" fill="#F7F3E6"/>
<path d="M119.623 61.2244H121.846L123.308 65.2639C123.488 65.8011 123.647 66.3837 123.826 66.9418H123.882C124.061 66.3837 124.214 65.8011 124.397 65.2639L125.814 61.2244H128.036V70.3186H126.18V66.9802C126.18 66.0942 126.346 64.7721 126.44 63.8895H126.384L125.645 66.0418L124.369 69.5267H123.239L121.963 66.0418L121.244 63.8895H121.189C121.286 64.7686 121.448 66.0942 121.448 66.9802V70.3186H119.62V61.2244H119.623Z" fill="#F7F3E6"/>
<path d="M130.159 61.2244H135.803V62.9477H132.195V64.7721H135.267V66.4953H132.195V68.5883H135.942V70.3116H130.159V61.2244Z" fill="#F7F3E6"/>
<path d="M138.842 72.9383H137.023L136.851 69.8721V68.5918H145.751V69.8721L145.578 72.9383H143.76V70.3151H138.842V72.9383ZM142.613 62.9477H140.867C140.673 64.0465 140.587 64.6011 140.38 65.7139C139.882 68.3337 139.035 69.8302 137.576 69.8686L137.262 68.5918C137.666 68.4488 138.126 67.6465 138.551 65.4418C138.855 63.8477 139.001 62.9581 139.298 61.2244H144.645V69.6942H142.609V62.9477H142.613Z" fill="#F7F3E6"/>
<path d="M146.93 61.2244H148.966V64.5453H150.127C152.16 64.5453 153.653 65.3407 153.653 67.3395C153.653 69.5337 152.09 70.3186 150.093 70.3186H146.93V61.2244ZM149.972 68.6825C151.036 68.6825 151.662 68.3058 151.662 67.3639C151.662 66.5581 151.098 66.1744 149.961 66.1744H148.966V68.6825H149.972Z" fill="#F7F3E6"/>
<path d="M24.7936 62.1663H25.8236V64.0256H23.9986V62.1663C23.9986 62.1663 23.8983 60.2198 25.8236 60.2198C25.8236 60.7884 25.8236 60.9767 25.8236 60.9767C25.8236 60.9767 24.7867 60.9488 24.7936 62.1663Z" fill="#F7F3E6"/>
<path d="M21.9696 62.1663H22.9996V64.0256H21.1746V62.1663C21.1746 62.1663 21.0744 60.2198 22.9996 60.2198C22.9996 60.7884 22.9996 60.9767 22.9996 60.9767C22.9996 60.9767 21.9627 60.9488 21.9696 62.1663Z" fill="#F7F3E6"/>
<path d="M154.686 62.0825H153.656V60.2232H155.481V62.0825C155.481 62.0825 155.581 64.0291 153.656 64.0291C153.656 63.4604 153.656 63.2721 153.656 63.2721C153.656 63.2721 154.693 63.3 154.686 62.0825Z" fill="#F7F3E6"/>
<path d="M157.51 62.0825H156.48V60.2232H158.305V62.0825C158.305 62.0825 158.405 64.0291 156.48 64.0291C156.48 63.4604 156.48 63.2721 156.48 63.2721C156.48 63.2721 157.517 63.3 157.51 62.0825Z" fill="#F7F3E6"/>
</svg>
