<svg width="159" height="75" viewBox="0 0 159 75" fill="none" xmlns="http://www.w3.org/2000/svg">
<path d="M15.6062 45.7141C13.7081 45.7141 12.2072 44.2467 12.2072 42.4815C12.2072 40.7202 13.7078 39.2524 15.6062 39.2524H15.6068H15.6079H15.6092H15.611H15.6131H15.6155H15.6183H15.6214H15.6249H15.6287H15.6329H15.6374H15.6423H15.6475H15.653H15.6589H15.6651H15.6716H15.6785H15.6857H15.6932H15.7011H15.7093H15.7178H15.7266H15.7358H15.7453H15.7551H15.7652H15.7757H15.7865H15.7975H15.8089H15.8206H15.8326H15.845H15.8576H15.8705H15.8838H15.8973H15.9112H15.9253H15.9398H15.9545H15.9696H15.9849H16.0005H16.0165H16.0327H16.0492H16.066H16.0831H16.1004H16.1181H16.136H16.1542H16.1727H16.1915H16.2106H16.2299H16.2495H16.2694H16.2895H16.3099H16.3306H16.3516H16.3728H16.3943H16.416H16.438H16.4603H16.4828H16.5056H16.5286H16.5519H16.5755H16.5993H16.6233H16.6476H16.6722H16.697H16.722H16.7473H16.7728H16.7986H16.8246H16.8508H16.8773H16.904H16.931H16.9581H16.9856H17.0132H17.0411H17.0692H17.0975H17.126H17.1548H17.1838H17.213H17.2424H17.272H17.3019H17.332H17.3623H17.3928H17.4235H17.4544H17.4855H17.5168H17.5484H17.5801H17.612H17.6442H17.6765H17.709H17.7418H17.7747H17.8078H17.8411H17.8746H17.9083H17.9422H17.9762H18.0105H18.0449H18.0795H18.1143H18.1493H18.1844H18.2198H18.2553H18.2909H18.3268H18.3628H18.399H18.4353H18.4718H18.5085H18.5454H18.5824H18.6196H18.6569H18.6944H18.732H18.7698H18.8078H18.8459H18.8841H18.9225H18.9611H18.9998H19.0387H19.0777H19.1168H19.1561H19.1955H19.235H19.2747H19.3146H19.3545H19.3946H19.4348H19.4752H19.5157H19.5563H19.597H19.6379H19.6789H19.72H19.7612H19.8026H19.844H19.8856H19.9273H19.9691H20.011H20.0531H20.0952H20.1375H20.1798H20.2223H20.2648H20.3075H20.3503H20.3931H20.4361H20.4792H20.5223H20.5656H20.6089H20.6523H20.6959H20.7395H20.7832H20.827H20.8708H20.9148H20.9588H21.0029H21.0471H21.0914H21.1357H21.1801H21.2246H21.2692H21.3138H21.3585H21.4032H21.4481H21.493H21.5379H21.5829H21.628H21.6732H21.7183H21.7636H21.8089H21.8543H21.8997H21.9451H21.9906H22.0362H22.0818H22.1274H22.1731H22.2189H22.2646H22.3104H22.3563H22.4022H22.4481H22.4941H22.54H22.5861H22.6321H22.6782H22.7243H22.7704H22.8166H22.8627H22.9089H22.9551H23.0014H23.0476H23.0939H23.1402H23.1864H23.2327H23.2791H23.3254H23.3717H23.418H23.4644H23.5107H23.557H23.6034H23.6497H23.696H23.7424H23.7887H23.835H23.8813H23.9276H23.9739H24.0202H24.0665H24.1127H24.1589H24.2051H24.2513H24.2975H24.3436H24.3898H24.4359H24.4819H24.528H24.574H24.62H24.6659H24.7118H24.7577H24.8036H24.8494H24.8951H24.9409H24.9866H25.0322H25.0778H25.1233H25.1688H25.2143H25.2597H25.3051H25.3504H25.3956H25.4408H25.4859H25.531H25.576H25.6209H25.6658H25.7107H25.7554H25.8001H25.8447H25.8893H25.9338H25.9782H26.0225H26.0667H26.1109H26.155H26.199H26.243H26.2868H26.3306H26.3743H26.4179H26.4614H26.5048H26.5482H26.5914H26.6345H26.6776H26.7205H26.7634H26.8062H26.8488H26.8914H26.9338H26.9761H27.0184H27.0605H27.1025H27.1444H27.1862H27.2279H27.2695H27.3109H27.3523H27.3935H27.4346H27.4756H27.5164H27.5571H27.5977H27.6382H27.6785H27.7188H27.7588H27.7988H27.8386H27.8783H27.9178H27.9572H27.9965H28.0356H28.0746H28.1134H28.1521H28.1906H28.229H28.2673H28.3054H28.3433H28.3811H28.4187H28.4562H28.4935H28.5306H28.5676H28.6045H28.6411H28.6776H28.714H28.7501H28.7861H28.822H28.8576H28.8931H28.9284H28.9635H28.9985H29.0332H29.0678H29.1022H29.1365H29.1705H29.2044H29.238H29.2715H29.3048H29.3379H29.3708H29.4035H29.436H29.4683H29.5004H29.5323H29.564H29.5956H29.6269H29.658H29.6888H29.7195H29.75H29.7803H29.8103H29.8401H29.8698H29.8992H29.9283H29.9573H29.9861H30.0146H30.0429H30.0709H30.0988H30.1264H30.1538H30.1809H30.2079H30.2345H30.261H30.2872H30.3132H30.3389H30.3644H30.3897H30.4147H30.4394H30.464H30.4882H30.5123H30.536H30.5596H30.5828H30.6058H30.6286H30.6511H30.6733H30.6953H30.717H30.7385H30.7597H30.7806H30.8012H30.8216H30.8417H30.8616H30.8811H30.8999C30.7722 39.9497 30.6479 40.6885 30.5001 41.5665C30.3151 42.6664 30.0933 43.9848 29.7819 45.7141H29.7781H29.7624H29.7464H29.7302H29.7138H29.697H29.6801H29.6628H29.6453H29.6276H29.6096H29.5914H29.5729H29.5541H29.5351H29.5159H29.4964H29.4767H29.4567H29.4365H29.4161H29.3954H29.3745H29.3533H29.3319H29.3103H29.2884H29.2664H29.244H29.2215H29.1987H29.1757H29.1525H29.1291H29.1054H29.0815H29.0574H29.0331H29.0086H28.9839H28.9589H28.9337H28.9083H28.8827H28.8569H28.8309H28.8047H28.7783H28.7517H28.7249H28.6978H28.6706H28.6432H28.6156H28.5877H28.5597H28.5315H28.5031H28.4746H28.4458H28.4168H28.3877H28.3584H28.3288H28.2991H28.2693H28.2392H28.209H28.1785H28.1479H28.1172H28.0862H28.0551H28.0238H27.9924H27.9608H27.929H27.897H27.8649H27.8326H27.8002H27.7676H27.7348H27.7019H27.6688H27.6356H27.6022H27.5686H27.5349H27.5011H27.4671H27.433H27.3987H27.3642H27.3297H27.2949H27.2601H27.2251H27.1899H27.1546H27.1192H27.0837H27.048H27.0122H26.9762H26.9402H26.9039H26.8676H26.8312H26.7946H26.7579H26.721H26.6841H26.647H26.6098H26.5725H26.5351H26.4976H26.4599H26.4222H26.3843H26.3463H26.3082H26.27H26.2317H26.1933H26.1548H26.1162H26.0775H26.0387H25.9998H25.9608H25.9217H25.8825H25.8432H25.8038H25.7644H25.7248H25.6852H25.6455H25.6056H25.5657H25.5258H25.4857H25.4456H25.4054H25.3651H25.3247H25.2843H25.2437H25.2032H25.1625H25.1218H25.081H25.0401H24.9992H24.9582H24.9171H24.876H24.8348H24.7936H24.7523H24.711H24.6695H24.6281H24.5866H24.545H24.5034H24.4617H24.42H24.3783H24.3365H24.2946H24.2527H24.2108H24.1688H24.1268H24.0848H24.0427H24.0006H23.9584H23.9163H23.8741H23.8318H23.7896H23.7473H23.7049H23.6626H23.6202H23.5778H23.5354H23.493H23.4506H23.4081H23.3656H23.3231H23.2806H23.2381H23.1956H23.153H23.1105H23.0679H23.0254H22.9828H22.9403H22.8977H22.8551H22.8126H22.77H22.7275H22.6849H22.6424H22.5999H22.5573H22.5148H22.4723H22.4298H22.3873H22.3449H22.3024H22.26H22.2176H22.1752H22.1329H22.0905H22.0482H22.0059H21.9637H21.9214H21.8792H21.8371H21.7949H21.7528H21.7107H21.6687H21.6267H21.5848H21.5428H21.501H21.4591H21.4173H21.3756H21.3339H21.2922H21.2506H21.2091H21.1676H21.1261H21.0848H21.0434H21.0021H20.9609H20.9197H20.8786H20.8376H20.7966H20.7557H20.7149H20.6741H20.6334H20.5927H20.5522H20.5117H20.4712H20.4309H20.3906H20.3504H20.3103H20.2703H20.2303H20.1904H20.1506H20.1109H20.0713H20.0318H19.9923H19.953H19.9137H19.8746H19.8355H19.7965H19.7576H19.7189H19.6802H19.6416H19.6031H19.5647H19.5265H19.4883H19.4502H19.4123H19.3744H19.3367H19.2991H19.2616H19.2242H19.1869H19.1497H19.1127H19.0758H19.039H19.0023H18.9657H18.9293H18.893H18.8568H18.8208H18.7849H18.7491H18.7134H18.6779H18.6425H18.6073H18.5722H18.5372H18.5024H18.4677H18.4332H18.3988H18.3645H18.3304H18.2964H18.2626H18.229H18.1955H18.1621H18.1289H18.0959H18.063H18.0303H17.9977H17.9653H17.9331H17.901H17.8691H17.8373H17.8057H17.7743H17.7431H17.712H17.6811H17.6504H17.6198H17.5895H17.5593H17.5293H17.4994H17.4698H17.4403H17.411H17.3819H17.353H17.3243H17.2957H17.2674H17.2392H17.2113H17.1835H17.1559H17.1286H17.1014H17.0744H17.0476H17.0211H16.9947H16.9685H16.9426H16.9168H16.8913H16.8659H16.8408H16.8159H16.7912H16.7667H16.7425H16.7184H16.6946H16.671H16.6476H16.6245H16.6015H16.5788H16.5563H16.5341H16.512H16.4902H16.4687H16.4473H16.4262H16.4054H16.3848H16.3644H16.3442H16.3243H16.3047H16.2852H16.2661H16.2471H16.2284H16.21H16.1918H16.1739H16.1562H16.1388H16.1216H16.1047H16.088H16.0716H16.0555H16.0396H16.024H16.0087H15.9936H15.9787H15.9642H15.9499H15.9359H15.9222H15.9087H15.8955H15.8826H15.8699H15.8576H15.8455H15.8337H15.8222H15.8109H15.8H15.7893H15.7789H15.7689H15.7591H15.7495H15.7403H15.7314H15.7228H15.7144H15.7064H15.6987H15.6912H15.6841H15.6773H15.6707H15.6645H15.6586H15.653H15.6477H15.6427H15.638H15.6337H15.6296H15.6259H15.6225H15.6194H15.6166H15.6141H15.612H15.6102H15.6087H15.6075H15.6067H15.6062Z" fill="#212121" stroke="#EB7E1B"/>
<path d="M13.4493 36.3967C11.3195 36.3967 9.70471 34.8911 9.70471 33.1641C9.70471 31.4377 11.3189 29.9351 13.4493 29.9351H13.45H13.4512H13.4526H13.4545H13.4568H13.4594H13.4625H13.4659H13.4697H13.4738H13.4784H13.4833H13.4886H13.4942H13.5002H13.5066H13.5134H13.5205H13.528H13.5358H13.544H13.5526H13.5615H13.5708H13.5804H13.5904H13.6007H13.6114H13.6224H13.6338H13.6455H13.6576H13.67H13.6827H13.6958H13.7092H13.723H13.7371H13.7515H13.7662H13.7813H13.7967H13.8124H13.8285H13.8449H13.8616H13.8786H13.8959H13.9136H13.9315H13.9498H13.9684H13.9873H14.0065H14.0261H14.0459H14.066H14.0865H14.1072H14.1282H14.1496H14.1712H14.1931H14.2154H14.2379H14.2607H14.2838H14.3072H14.3309H14.3548H14.3791H14.4036H14.4284H14.4535H14.4788H14.5045H14.5304H14.5566H14.583H14.6097H14.6367H14.664H14.6915H14.7193H14.7473H14.7757H14.8042H14.833H14.8621H14.8915H14.9211H14.9509H14.981H15.0113H15.0419H15.0727H15.1038H15.1351H15.1667H15.1985H15.2305H15.2628H15.2953H15.328H15.361H15.3942H15.4276H15.4613H15.4952H15.5293H15.5636H15.5982H15.6329H15.6679H15.7031H15.7385H15.7742H15.81H15.8461H15.8823H15.9188H15.9555H15.9924H16.0294H16.0667H16.1042H16.1419H16.1798H16.2178H16.2561H16.2946H16.3332H16.372H16.4111H16.4503H16.4897H16.5292H16.569H16.6089H16.6491H16.6893H16.7298H16.7705H16.8113H16.8523H16.8934H16.9347H16.9762H17.0179H17.0597H17.1017H17.1438H17.1861H17.2285H17.2712H17.3139H17.3568H17.3999H17.4431H17.4865H17.53H17.5736H17.6174H17.6614H17.7054H17.7497H17.794H17.8385H17.8831H17.9279H17.9728H18.0178H18.0629H18.1082H18.1536H18.1991H18.2447H18.2905H18.3364H18.3824H18.4285H18.4747H18.5211H18.5675H18.6141H18.6607H18.7075H18.7544H18.8014H18.8485H18.8956H18.9429H18.9903H19.0378H19.0854H19.133H19.1808H19.2286H19.2766H19.3246H19.3727H19.4209H19.4692H19.5175H19.5659H19.6145H19.663H19.7117H19.7604H19.8092H19.8581H19.9071H19.9561H20.0052H20.0543H20.1035H20.1528H20.2021H20.2515H20.3009H20.3504H20.3999H20.4495H20.4992H20.5489H20.5986H20.6484H20.6983H20.7481H20.798H20.848H20.898H20.948H20.9981H21.0482H21.0983H21.1485H21.1987H21.2489H21.2991H21.3494H21.3997H21.45H21.5003H21.5507H21.6011H21.6514H21.7018H21.7522H21.8027H21.8531H21.9035H21.954H22.0044H22.0549H22.1053H22.1558H22.2062H22.2567H22.3071H22.3575H22.408H22.4584H22.5088H22.5592H22.6096H22.6599H22.7103H22.7606H22.8109H22.8612H22.9115H22.9617H23.0119H23.0621H23.1123H23.1624H23.2125H23.2626H23.3126H23.3626H23.4125H23.4624H23.5123H23.5621H23.6119H23.6617H23.7114H23.761H23.8106H23.8601H23.9096H23.9591H24.0084H24.0578H24.107H24.1562H24.2053H24.2544H24.3034H24.3524H24.4012H24.45H24.4988H24.5474H24.596H24.6445H24.6929H24.7413H24.7895H24.8377H24.8858H24.9338H24.9817H25.0296H25.0773H25.125H25.1725H25.22H25.2674H25.3147H25.3618H25.4089H25.4559H25.5028H25.5495H25.5962H25.6427H25.6892H25.7355H25.7817H25.8278H25.8738H25.9197H25.9654H26.011H26.0565H26.1019H26.1472H26.1923H26.2373H26.2822H26.3269H26.3715H26.416H26.4603H26.5045H26.5486H26.5925H26.6363H26.6799H26.7234H26.7668H26.81H26.853H26.8959H26.9387H26.9813H27.0237H27.066H27.1081H27.1501H27.1919H27.2335H27.275H27.3163H27.3574H27.3984H27.4392H27.4798H27.5202H27.5605H27.6006H27.6405H27.6803H27.7198H27.7592H27.7984H27.8374H27.8762H27.9148H27.9533H27.9915H28.0296H28.0674H28.1051H28.1426H28.1798H28.2169H28.2537H28.2904H28.3268H28.3631H28.3991H28.4349H28.4705H28.5059H28.5411H28.5761H28.6108H28.6454H28.6797H28.7137H28.7476H28.7812H28.8146H28.8478H28.8808H28.9135H28.946H28.9782H29.0102H29.042H29.0735H29.1048H29.1359H29.1667H29.1972H29.2275H29.2576H29.2874H29.317H29.3463H29.3754H29.4042H29.4327H29.461H29.489H29.5168H29.5443H29.5715H29.5985H29.6251H29.6516H29.6777H29.7036H29.7292H29.7545H29.7796H29.8044H29.8289H29.8531H29.877H29.9007H29.924H29.9471H29.9699H29.9923H30.0145H30.0364H30.058H30.0794H30.1004H30.1211H30.1415H30.1616H30.1814H30.2009H30.2201H30.2389H30.2575H30.2757H30.2937H30.3113H30.3286H30.3456H30.3623H30.3786H30.3946H30.4103H30.4257H30.4407H30.4554H30.4698H30.4839H30.4976H30.511H30.524H30.5367H30.5491H30.5611H30.5728H30.5841H30.5951H30.6058H30.616H30.626H30.6356H30.6448H30.6537H30.6622H30.6704H30.6782H30.6856H30.6927H30.6994H30.7058H30.7118H30.7174H30.7226H30.7275H30.732H30.7361H30.7399H30.7433H30.7462H30.7489H30.7511H30.7529H30.7544H30.7554H30.7561C31.2952 29.9351 31.5577 30.1089 31.714 30.3429C31.8975 30.6178 31.9975 31.0688 31.9905 31.7321C31.9791 32.8104 31.6966 34.1947 31.3858 35.7185C31.3402 35.9417 31.2941 36.168 31.248 36.3967H31.245H31.2274H31.2096H31.1914H31.1728H31.154H31.1348H31.1152H31.0954H31.0752H31.0547H31.0338H31.0127H30.9912H30.9694H30.9473H30.9249H30.9021H30.8791H30.8557H30.8321H30.8081H30.7838H30.7592H30.7343H30.7091H30.6836H30.6579H30.6318H30.6054H30.5787H30.5518H30.5245H30.497H30.4692H30.4411H30.4127H30.384H30.3551H30.3258H30.2963H30.2665H30.2365H30.2062H30.1756H30.1447H30.1136H30.0822H30.0505H30.0186H29.9864H29.954H29.9213H29.8883H29.8551H29.8216H29.7879H29.754H29.7198H29.6853H29.6506H29.6157H29.5805H29.5451H29.5094H29.4735H29.4374H29.401H29.3644H29.3276H29.2906H29.2533H29.2158H29.178H29.1401H29.1019H29.0635H29.0249H28.9861H28.9471H28.9078H28.8684H28.8287H28.7888H28.7487H28.7085H28.668H28.6273H28.5864H28.5453H28.504H28.4626H28.4209H28.379H28.337H28.2948H28.2523H28.2097H28.1669H28.124H28.0808H28.0375H27.994H27.9503H27.9064H27.8624H27.8182H27.7738H27.7293H27.6846H27.6397H27.5947H27.5495H27.5042H27.4587H27.413H27.3672H27.3212H27.2751H27.2288H27.1824H27.1359H27.0892H27.0423H26.9953H26.9482H26.9009H26.8535H26.806H26.7583H26.7105H26.6626H26.6145H26.5663H26.518H26.4696H26.421H26.3723H26.3235H26.2746H26.2256H26.1764H26.1272H26.0778H26.0283H25.9787H25.929H25.8792H25.8293H25.7793H25.7292H25.679H25.6287H25.5783H25.5279H25.4773H25.4266H25.3759H25.325H25.2741H25.2231H25.172H25.1208H25.0696H25.0182H24.9668H24.9154H24.8638H24.8122H24.7605H24.7088H24.6569H24.6051H24.5531H24.5011H24.449H24.3969H24.3447H24.2925H24.2402H24.1879H24.1355H24.083H24.0305H23.978H23.9254H23.8728H23.8202H23.7675H23.7147H23.662H23.6092H23.5563H23.5035H23.4506H23.3977H23.3447H23.2918H23.2388H23.1858H23.1327H23.0797H23.0266H22.9736H22.9205H22.8674H22.8143H22.7611H22.708H22.6549H22.6017H22.5486H22.4955H22.4423H22.3892H22.3361H22.283H22.2299H22.1768H22.1237H22.0706H22.0176H21.9645H21.9115H21.8585H21.8055H21.7525H21.6996H21.6467H21.5938H21.5409H21.4881H21.4353H21.3826H21.3298H21.2772H21.2245H21.1719H21.1193H21.0668H21.0143H20.9619H20.9095H20.8572H20.8049H20.7527H20.7005H20.6484H20.5963H20.5444H20.4924H20.4405H20.3887H20.337H20.2853H20.2337H20.1822H20.1307H20.0793H20.028H19.9768H19.9256H19.8746H19.8236H19.7727H19.7218H19.6711H19.6204H19.5699H19.5194H19.4691H19.4188H19.3686H19.3185H19.2685H19.2186H19.1689H19.1192H19.0696H19.0202H18.9708H18.9216H18.8725H18.8234H18.7746H18.7258H18.6771H18.6286H18.5802H18.5319H18.4837H18.4357H18.3878H18.34H18.2923H18.2448H18.1974H18.1502H18.1031H18.0561H18.0093H17.9626H17.9161H17.8697H17.8235H17.7774H17.7315H17.6857H17.64H17.5946H17.5493H17.5041H17.4591H17.4143H17.3696H17.3251H17.2808H17.2366H17.1926H17.1488H17.1051H17.0617H17.0184H16.9753H16.9323H16.8896H16.847H16.8046H16.7624H16.7204H16.6786H16.6369H16.5955H16.5543H16.5132H16.4724H16.4317H16.3913H16.351H16.311H16.2712H16.2315H16.1921H16.1529H16.1139H16.0751H16.0366H15.9982H15.9601H15.9222H15.8845H15.8471H15.8098H15.7728H15.736H15.6995H15.6632H15.6271H15.5912H15.5556H15.5202H15.4851H15.4502H15.4156H15.3812H15.347H15.3131H15.2794H15.246H15.2129H15.18H15.1473H15.1149H15.0828H15.0509H15.0193H14.988H14.9569H14.9261H14.8955H14.8653H14.8353H14.8055H14.7761H14.7469H14.718H14.6894H14.6611H14.633H14.6052H14.5778H14.5506H14.5237H14.4971H14.4707H14.4447H14.419H14.3936H14.3684H14.3436H14.3191H14.2949H14.2709H14.2473H14.224H14.201H14.1784H14.156H14.134H14.1122H14.0908H14.0697H14.0489H14.0285H14.0084H13.9886H13.9691H13.95H13.9312H13.9127H13.8946H13.8768H13.8593H13.8422H13.8254H13.809H13.7929H13.7771H13.7617H13.7467H13.732H13.7176H13.7036H13.69H13.6767H13.6638H13.6512H13.639H13.6272H13.6157H13.6046H13.5939H13.5835H13.5735H13.5639H13.5546H13.5458H13.5373H13.5291H13.5214H13.5141H13.5071H13.5005H13.4943H13.4885H13.4831H13.4781H13.4735H13.4693H13.4654H13.462H13.459H13.4564H13.4541H13.4523H13.4509H13.4499H13.4493Z" fill="#212121" stroke="#EB7E1B"/>
<path d="M60.7753 48.0669L60.9071 48.3636L61.2317 48.364L88.4864 48.3954L88.7606 48.3957L88.9083 48.1645L88.4869 47.8954C88.9083 48.1645 88.9084 48.1644 88.9086 48.164L88.9095 48.1626L88.9133 48.1568L88.928 48.1336L88.9864 48.0422L89.2143 47.6855L90.0802 46.33L93.1789 41.4795C95.748 37.4582 99.1847 32.0795 102.655 26.6497C109.599 15.7862 116.671 4.7279 117.209 3.91419C117.247 3.85815 117.283 3.80308 117.319 3.74897C117.821 2.9873 118.198 2.41594 118.689 2.00673C119.181 1.59705 119.815 1.33374 120.885 1.33374C122.155 1.33374 123.042 2.39466 123.533 3.22874C123.722 3.55155 123.864 3.90546 123.961 4.27605C123.961 4.27641 123.961 4.27678 123.961 4.27714L128.289 21.1257L110.048 49.4447L106.249 35.3813L105.957 34.3028L105.347 35.2385L92.3431 55.1814H56.3292C56.1467 54.7758 55.7894 53.9815 55.3258 52.9507C54.596 51.3279 53.6025 49.1189 52.6123 46.918C51.6716 44.8273 50.7342 42.7446 50.0291 41.1798C49.6766 40.3975 49.3821 39.7445 49.1743 39.2847C49.0704 39.0549 48.988 38.8731 48.9309 38.7474C48.9023 38.6847 48.8798 38.6354 48.864 38.6009L48.8444 38.5587L48.8365 38.5422L48.8309 38.5307L48.8253 38.5201C48.8227 38.5153 48.8155 38.5025 48.8106 38.4944L48.4415 37.8927L47.9963 38.4405C47.7879 38.6969 45.6078 41.4104 43.0577 44.5844C39.6247 48.8573 35.5212 53.9647 34.6555 55.0349H34.6405H34.6222H34.6032H34.5837H34.5636H34.5429H34.5215H34.4996H34.4771H34.4539H34.4302H34.4059H34.381H34.3556H34.3295H34.3029H34.2757H34.2479H34.2196H34.1907H34.1612H34.1312H34.1006H34.0694H34.0377H34.0055H33.9727H33.9394H33.9055H33.8711H33.8361H33.8006H33.7646H33.728H33.691H33.6534H33.6152H33.5766H33.5374H33.4978H33.4576H33.4169H33.3757H33.334H33.2918H33.2492H33.206H33.1623H33.1181H33.0735H33.0284H32.9828H32.9367H32.8901H32.8431H32.7956H32.7476H32.6992H32.6503H32.6009H32.5511H32.5009H32.4501H32.399H32.3474H32.2953H32.2428H32.1899H32.1365H32.0827H32.0285H31.9739H31.9188H31.8633H31.8074H31.7511H31.6943H31.6372H31.5796H31.5216H31.4633H31.4045H31.3453H31.2858H31.2258H31.1655H31.1047H31.0436H30.9821H30.9203H30.858H30.7954H30.7324H30.669H30.6053H30.5412H30.4768H30.412H30.3468H30.2813H30.2155H30.1493H30.0827H30.0158H29.9486H29.881H29.8132H29.7449H29.6764H29.6075H29.5383H29.4688H29.399H29.3288H29.2584H29.1876H29.1165H29.0451H28.9735H28.9015H28.8292H28.7567H28.6838H28.6107H28.5373H28.4636H28.3896H28.3153H28.2408H28.166H28.0909H28.0156H27.94H27.8641H27.788H27.7116H27.635H27.5581H27.481H27.4036H27.326H27.2482H27.1701H27.0918H27.0132H26.9345H26.8555H26.7762H26.6968H26.6171H26.5373H26.4572H26.3769H26.2964H26.2157H26.1348H26.0537H25.9724H25.8909H25.8092H25.7273H25.6453H25.563H25.4806H25.398H25.3152H25.2323H25.1492H25.0659H24.9825H24.8989H24.8151H24.7312H24.6471H24.5629H24.4785H24.394H24.3094H24.2246H24.1397H24.0546H23.9694H23.8841H23.7986H23.7131H23.6274H23.5415H23.4556H23.3696H23.2834H23.1972H23.1108H23.0244H22.9378H22.8511H22.7644H22.6775H22.5906H22.5036H22.4165H22.3293H22.2421H22.1547H22.0673H21.9798H21.8923H21.8047H21.717H21.6293H21.5415H21.4537H21.3658H21.2779H21.1899H21.1019H21.0138H20.9257H20.8376H20.7494H20.6612H20.573H20.4847H20.3964H20.3082H20.2199H20.1315H20.0432H19.9549H19.8665H19.7782H19.6898H19.6015H19.5132H19.4248H19.3365H19.2482H19.1599H19.0717H18.9834H18.8952H18.807H18.7188H18.6307H18.5426H18.4546H18.3665H18.2786H18.1906H18.1028H18.0149H17.9271H17.8394H17.7518H17.6642H17.5766H17.4892H17.4018H17.3144H17.2272H17.14H17.0529H16.9659H16.879H16.7922H16.7054H16.6188H16.5322H16.4458H16.3594H16.2732H16.1871H16.101H16.0151H15.9293H15.8436H15.7581H15.6727H15.5873H15.5022H15.4171H15.3322H15.2474H15.1628H15.0783H14.9939H14.9097H14.8257H14.7418H14.6581H14.5745H14.4911H14.4078H14.3247H14.2418H14.159H14.0765H13.9941H13.9118H13.8298H13.748H13.6663H13.5848H13.5035H13.4225H13.3416H13.2609H13.1804H13.1002H13.0201H12.9402H12.8606H12.7812H12.702H12.623H12.5443H12.4658H12.3875H12.3094H12.2316H12.154H12.0767H11.9996H11.9228H11.8462H11.7698H11.6937H11.6179H11.5423H11.467H11.392H11.3172H11.2427H11.1685H11.0945H11.0209H10.9475H10.8744H10.8015H10.729H10.6568H10.5849H10.5132H10.4419H10.3708H10.3001H10.2297H10.1596H10.0898H10.0203H9.95114H9.88231H9.8138H9.74561H9.67776H9.61024H9.54305H9.47621H9.4097H9.34354H9.27773H9.21226H9.14715H9.08239H9.01798H8.95394H8.89026H8.82695H8.764H8.70142H8.63922H8.57739H8.51594H8.45488H8.39419H8.3339H8.27399H8.21447H8.15535H8.09663H8.03831H7.98039H7.92287H7.86577H7.80907H7.75279H7.69693H7.64148H7.58645H7.53185H7.47768H7.42393H7.37062H7.31775H7.26531H7.21331H7.16175H7.11064H7.05998H7.00977H6.96001H6.91071H6.86187H6.81349H6.76558H6.71813H6.67115H6.62465H6.57862H6.53307H6.488H6.44341H6.39931H6.35569H6.31257H6.26995H6.22781H6.18618H6.14505H6.10443H6.06431H6.02471H5.98561H5.94703H5.90897H5.87144H5.83442H5.79793H5.76197H5.72654H5.69165H5.65729H5.62347H5.5902H5.55747H5.52528H5.49365H5.46257H5.43205H5.40209H5.37268H5.34384H5.31557H5.28787H5.26073H5.23418H5.2082H5.1828H5.15798H5.13375H5.1101H5.08705H5.06459H5.04273H5.02146H5.0008H4.98074H4.96129H4.94244H4.92421H4.9066H4.8896H4.87322H4.85746H4.84233H4.82783H4.81396H4.80072H4.78812H4.77616H4.76484H4.75417H4.74414H4.73476H4.72603H4.71796H4.71055H4.7038H4.69771H4.69228H4.68753H4.68344H4.68003H4.6773H4.67525H4.67388H4.67319C2.77513 55.0349 1.27423 53.5675 1.27423 51.8023C1.27423 50.0372 2.77513 48.5698 4.67319 48.5698H4.67395H4.67532H4.67729H4.67985H4.68301H4.68676H4.6911H4.69602H4.70153H4.70763H4.7143H4.72155H4.72937H4.73777H4.74674H4.75628H4.76638H4.77704H4.78827H4.80006H4.8124H4.82529H4.83874H4.85274H4.86728H4.88237H4.898H4.91417H4.93088H4.94812H4.96589H4.9842H5.00303H5.02239H5.04227H5.06268H5.0836H5.10504H5.12699H5.14946H5.17243H5.19591H5.21989H5.24438H5.26937H5.29485H5.32083H5.3473H5.37426H5.40171H5.42965H5.45807H5.48696H5.51634H5.5462H5.57652H5.60732H5.63859H5.67033H5.70253H5.73519H5.76831H5.80189H5.83592H5.87041H5.90534H5.94073H5.97656H6.01283H6.04955H6.0867H6.12429H6.16231H6.20076H6.23964H6.27895H6.31869H6.35884H6.39942H6.44041H6.48182H6.52364H6.56587H6.6085H6.65155H6.69499H6.73884H6.78309H6.82773H6.87276H6.91819H6.964H7.0102H7.05679H7.10376H7.15111H7.19883H7.24693H7.2954H7.34424H7.39345H7.44303H7.49297H7.54326H7.59392H7.64494H7.6963H7.74802H7.80009H7.8525H7.90526H7.95835H8.01179H8.06557H8.11968H8.17412H8.22889H8.284H8.33942H8.39517H8.45124H8.50763H8.56433H8.62135H8.67867H8.73631H8.79425H8.8525H8.91105H8.9699H9.02904H9.08848H9.14822H9.20824H9.26855H9.32914H9.39002H9.45118H9.51261H9.57433H9.63631H9.69857H9.76109H9.82389H9.88694H9.95026H10.0138H10.0777H10.1418H10.2061H10.2707H10.3355H10.4006H10.4659H10.5315H10.5973H10.6633H10.7296H10.7961H10.8629H10.9298H10.997H11.0644H11.132H11.1999H11.2679H11.3362H11.4047H11.4734H11.5422H11.6113H11.6806H11.7501H11.8198H11.8897H11.9598H12.03H12.1005H12.1711H12.2419H12.3129H12.3841H12.4554H12.5269H12.5986H12.6704H12.7425H12.8146H12.887H12.9595H13.0321H13.1049H13.1779H13.251H13.3242H13.3976H13.4712H13.5448H13.6186H13.6926H13.7667H13.8409H13.9152H13.9897H14.0642H14.1389H14.2138H14.2887H14.3638H14.4389H14.5142H14.5896H14.665H14.7406H14.8163H14.8921H14.9679H15.0439H15.1199H15.1961H15.2723H15.3486H15.425H15.5014H15.578H15.6546H15.7313H15.808H15.8848H15.9617H16.0387H16.1157H16.1927H16.2698H16.347H16.4242H16.5015H16.5788H16.6561H16.7335H16.8109H16.8884H16.9659H17.0434H17.1209H17.1985H17.2761H17.3537H17.4314H17.509H17.5867H17.6644H17.7421H17.8198H17.8975H17.9752H18.0529H18.1306H18.2083H18.286H18.3637H18.4413H18.519H18.5966H18.6742H18.7518H18.8294H18.907H18.9845H19.062H19.1394H19.2169H19.2942H19.3716H19.4489H19.5261H19.6034H19.6805H19.7576H19.8347H19.9117H19.9886H20.0655H20.1423H20.2191H20.2957H20.3723H20.4489H20.5253H20.6017H20.678H20.7542H20.8304H20.9064H20.9824H21.0582H21.134H21.2097H21.2853H21.3607H21.4361H21.5114H21.5865H21.6616H21.7365H21.8113H21.886H21.9606H22.035H22.1094H22.1836H22.2576H22.3316H22.4054H22.4791H22.5526H22.626H22.6992H22.7723H22.8453H22.9181H22.9907H23.0632H23.1355H23.2077H23.2797H23.3516H23.4232H23.4948H23.5661H23.6373H23.7082H23.779H23.8497H23.9201H23.9904H24.0604H24.1303H24.2H24.2695H24.3387H24.4078H24.4767H24.5454H24.6139H24.6821H24.7502H24.818H24.8856H24.953H25.0202H25.0871H25.1539H25.2204H25.2866H25.3527H25.4185H25.484H25.5493H25.6144H25.6792H25.7438H25.8081H25.8722H25.9361H25.9996H26.0629H26.126H26.1888H26.2513H26.3135H26.3755H26.4372H26.4986H26.5598H26.6206H26.6812H26.7415H26.8015H26.8613H26.9207H26.9798H27.0387H27.0972H27.1554H27.2134H27.271H27.3283H27.3853H27.442H27.4984H27.5545H27.6102H27.6656H27.7207H27.7755H27.8299H27.884H27.9378H27.9912H28.0443H28.097H28.1494H28.2015H28.2532H28.3045H28.3555H28.4062H28.4565H28.5064H28.556H28.6052H28.654H28.7024H28.7505H28.7982H28.8456H28.8925H28.9391H28.9853H29.0311H29.0765H29.1215H29.1662H29.2104H29.2542H29.2977H29.3407H29.3833H29.4255H29.4673H29.5087H29.5497H29.5903H29.6304H29.6701H29.7094H29.7483H29.7867H29.8247H29.8623H29.8994H29.9361H29.9724H30.0082H30.0436H30.0785H30.113H30.147H30.1806H30.2137H30.2463H30.2785H30.3102H30.3415H30.3723H30.4026H30.4324H30.4618H30.4906H30.5191H30.547H30.5744H30.6013H30.6278H30.6538H30.6792H30.7042H30.7287H30.7526H30.7761H30.7991H30.8215H30.8434H30.8649H30.8858H30.9062H30.926H30.9454H30.9642H30.9825H31.0002H31.0174H31.0341H31.0503H31.0659H31.081H31.0955H31.1095H31.1229H31.1358H31.1481H31.1599H31.1711H31.1817H31.1918H31.2013H31.2103H31.2187H31.2265H31.2337H31.2403H31.2464H31.2519H31.2568H31.2611H31.2649H31.268H31.2705H31.2725H31.2738H31.2746H31.513L31.6631 48.3846C35.613 43.5099 38.5291 39.7961 40.7349 36.968C41.1544 36.4302 41.5478 35.9248 41.9176 35.4499C43.4951 33.4238 44.6408 31.9523 45.5342 30.8789C46.6453 29.5441 47.3205 28.8836 47.8997 28.5418C48.443 28.2211 48.9314 28.1628 49.7704 28.1628C50.5751 28.1628 51.0547 28.2494 51.5027 28.5783C51.9814 28.9296 52.4826 29.5999 53.1808 30.9431C54.0131 32.5445 55.0654 34.9754 56.6695 38.6809C57.7525 41.1829 59.0871 44.2658 60.7753 48.0669Z" fill="#212121" stroke="#EB7E1B"/>
<path d="M64.0987 45.7107H64.0924C64.1625 45.0844 64.2369 44.4527 64.3229 43.7218C64.4564 42.5871 64.618 41.2133 64.8358 39.249H64.8527H64.8707H64.8891H64.9077H64.9267H64.946H64.9656H64.9855H65.0057H65.0262H65.047H65.0681H65.0895H65.1112H65.1332H65.1555H65.1781H65.201H65.2242H65.2477H65.2714H65.2955H65.3198H65.3444H65.3693H65.3945H65.4199H65.4457H65.4717H65.498H65.5245H65.5513H65.5784H65.6058H65.6334H65.6613H65.6895H65.7179H65.7466H65.7755H65.8047H65.8342H65.8639H65.8938H65.924H65.9545H65.9852H66.0162H66.0474H66.0788H66.1105H66.1424H66.1746H66.207H66.2396H66.2725H66.3056H66.3389H66.3725H66.4063H66.4403H66.4746H66.5091H66.5437H66.5787H66.6138H66.6491H66.6847H66.7205H66.7565H66.7927H66.8291H66.8657H66.9026H66.9396H66.9768H67.0143H67.0519H67.0898H67.1278H67.166H67.2045H67.2431H67.2819H67.3209H67.3601H67.3995H67.439H67.4788H67.5187H67.5588H67.5991H67.6396H67.6802H67.721H67.762H67.8032H67.8445H67.886H67.9277H67.9695H68.0115H68.0537H68.096H68.1385H68.1811H68.2239H68.2669H68.31H68.3532H68.3966H68.4402H68.4839H68.5277H68.5717H68.6158H68.6601H68.7045H68.749H68.7937H68.8386H68.8835H68.9286H68.9738H69.0191H69.0646H69.1102H69.1559H69.2018H69.2477H69.2938H69.34H69.3863H69.4328H69.4793H69.526H69.5727H69.6196H69.6666H69.7137H69.7609H69.8082H69.8556H69.9031H69.9506H69.9983H70.0461H70.094H70.142H70.19H70.2382H70.2864H70.3347H70.3831H70.4316H70.4802H70.5288H70.5776H70.6264H70.6752H70.7242H70.7732H70.8223H70.8715H70.9207H70.97H71.0194H71.0688H71.1183H71.1678H71.2174H71.2671H71.3168H71.3665H71.4164H71.4662H71.5162H71.5661H71.6161H71.6662H71.7163H71.7664H71.8166H71.8668H71.9171H71.9674H72.0177H72.068H72.1184H72.1688H72.2193H72.2697H72.3202H72.3707H72.4213H72.4718H72.5224H72.573H72.6236H72.6742H72.7249H72.7755H72.8262H72.8768H72.9275H72.9781H73.0288H73.0795H73.1302H73.1808H73.2315H73.2822H73.3328H73.3835H73.4341H73.4847H73.5354H73.586H73.6365H73.6871H73.7377H73.7882H73.8387H73.8892H73.9397H73.9901H74.0405H74.0909H74.1412H74.1915H74.2418H74.2921H74.3423H74.3924H74.4426H74.4927H74.5427H74.5927H74.6427H74.6926H74.7424H74.7922H74.842H74.8917H74.9413H74.9909H75.0405H75.0899H75.1393H75.1887H75.238H75.2872H75.3363H75.3854H75.4344H75.4834H75.5322H75.581H75.6297H75.6784H75.7269H75.7754H75.8238H75.8721H75.9203H75.9684H76.0165H76.0644H76.1123H76.16H76.2077H76.2553H76.3027H76.3501H76.3974H76.4446H76.4916H76.5386H76.5854H76.6322H76.6788H76.7253H76.7718H76.818H76.8642H76.9103H76.9562H77.002H77.0477H77.0933H77.1387H77.1841H77.2292H77.2743H77.3192H77.364H77.4087H77.4532H77.4976H77.5418H77.5859H77.6299H77.6737H77.7174H77.7609H77.8042H77.8475H77.8905H77.9335H77.9762H78.0188H78.0613H78.1036H78.1457H78.1876H78.2294H78.2711H78.3125H78.3538H78.395H78.4359H78.4767H78.5173H78.5577H78.598H78.6381H78.678H78.7177H78.7572H78.7965H78.8357H78.8747H78.9134H78.952H78.9904H79.0286H79.0666H79.1044H79.142H79.1794H79.2166H79.2536H79.2904H79.3269H79.3633H79.3995H79.4354H79.4712H79.5067H79.542H79.5771H79.6119H79.6466H79.681H79.7152H79.7492H79.7829H79.8165H79.8498H79.8828H79.9156H79.9482H79.9806H80.0127H80.0446H80.0762H80.1076H80.1388H80.1697H80.2003H80.2307H80.2609H80.2908H80.3204H80.3498H80.379H80.4079H80.4365H80.4649H80.493H80.5208H80.5484H80.5757H80.6027H80.6295H80.656H80.6822H80.7082H80.7339H80.7593H80.7844H80.8092H80.8338H80.858H80.882H80.9057H80.9291H80.9523H80.9751H80.9976H81.0199H81.0418H81.0635H81.0848H81.1059H81.1266H81.147H81.1672H81.187H81.2065H81.2258H81.2447H81.2632H81.2815H81.2995H81.3171H81.3344H81.3514H81.3681H81.3845H81.4005H81.4162H81.4316H81.4466H81.4614H81.4757H81.4898H81.5035H81.5169H81.5299H81.5426H81.555H81.567H81.5786H81.59H81.6009H81.6115H81.6218H81.6317H81.6413H81.6505H81.6593H81.6678H81.676H81.6837H81.6911H81.6982H81.7049H81.7112H81.7171H81.7227H81.7279H81.7327H81.7371H81.7412H81.7449H81.7482H81.7511H81.7536H81.7558H81.7576H81.7589H81.7599H81.7605C84.0443 39.249 85.7333 40.7769 85.7333 42.4816C85.7333 44.1862 84.0443 45.7139 81.7612 45.7107H81.7605H81.7598H81.7586H81.7571H81.7551H81.7527H81.7499H81.7467H81.7432H81.7392H81.7348H81.73H81.7249H81.7193H81.7133H81.707H81.7003H81.6932H81.6857H81.6778H81.6696H81.6609H81.6519H81.6425H81.6328H81.6226H81.6121H81.6013H81.59H81.5784H81.5664H81.5541H81.5414H81.5284H81.515H81.5012H81.4871H81.4726H81.4578H81.4426H81.4271H81.4112H81.395H81.3784H81.3615H81.3443H81.3267H81.3088H81.2905H81.2719H81.253H81.2337H81.2142H81.1943H81.174H81.1535H81.1326H81.1114H81.0899H81.068H81.0459H81.0234H81.0006H80.9775H80.9541H80.9304H80.9064H80.8821H80.8575H80.8325H80.8073H80.7818H80.7559H80.7298H80.7034H80.6767H80.6497H80.6224H80.5949H80.567H80.5389H80.5104H80.4817H80.4527H80.4235H80.394H80.3641H80.3341H80.3037H80.2731H80.2422H80.211H80.1796H80.1479H80.116H80.0837H80.0513H80.0186H79.9856H79.9523H79.9189H79.8851H79.8511H79.8169H79.7824H79.7477H79.7127H79.6775H79.6421H79.6064H79.5705H79.5343H79.498H79.4613H79.4245H79.3874H79.3501H79.3126H79.2749H79.2369H79.1987H79.1603H79.1217H79.0828H79.0438H79.0045H78.965H78.9254H78.8855H78.8454H78.8051H78.7646H78.7239H78.683H78.6419H78.6006H78.5591H78.5174H78.4755H78.4335H78.3912H78.3488H78.3062H78.2634H78.2204H78.1772H78.1339H78.0904H78.0467H78.0028H77.9588H77.9146H77.8702H77.8257H77.7809H77.7361H77.691H77.6458H77.6005H77.555H77.5093H77.4635H77.4175H77.3714H77.3251H77.2787H77.2321H77.1854H77.1386H77.0916H77.0444H76.9972H76.9498H76.9022H76.8545H76.8067H76.7588H76.7107H76.6625H76.6142H76.5658H76.5172H76.4685H76.4197H76.3708H76.3218H76.2726H76.2234H76.174H76.1245H76.0749H76.0252H75.9754H75.9255H75.8755H75.8254H75.7752H75.7249H75.6745H75.624H75.5735H75.5228H75.472H75.4212H75.3703H75.3193H75.2682H75.217H75.1658H75.1144H75.063H75.0116H74.96H74.9084H74.8567H74.8049H74.7531H74.7012H74.6493H74.5973H74.5452H74.4931H74.4409H74.3887H74.3364H74.284H74.2317H74.1792H74.1267H74.0742H74.0216H73.969H73.9164H73.8637H73.8109H73.7582H73.7054H73.6526H73.5997H73.5468H73.4939H73.4409H73.388H73.335H73.282H73.2289H73.1759H73.1228H73.0698H73.0167H72.9636H72.9105H72.8573H72.8042H72.7511H72.698H72.6448H72.5917H72.5386H72.4854H72.4323H72.3792H72.3261H72.273H72.2199H72.1668H72.1138H72.0607H72.0077H71.9547H71.9017H71.8487H71.7958H71.7429H71.69H71.6371H71.5843H71.5315H71.4788H71.426H71.3733H71.3207H71.2681H71.2155H71.163H71.1105H71.0581H71.0057H70.9534H70.9011H70.8488H70.7967H70.7445H70.6925H70.6405H70.5885H70.5367H70.4848H70.4331H70.3814H70.3298H70.2783H70.2268H70.1754H70.1241H70.0728H70.0217H69.9706H69.9196H69.8687H69.8178H69.7671H69.7164H69.6659H69.6154H69.565H69.5147H69.4645H69.4144H69.3645H69.3146H69.2648H69.2151H69.1655H69.116H69.0667H69.0174H68.9683H68.9193H68.8704H68.8216H68.7729H68.7243H68.6759H68.6276H68.5794H68.5314H68.4834H68.4356H68.388H68.3405H68.2931H68.2458H68.1987H68.1517H68.1049H68.0582H68.0116H67.9652H67.9189H67.8728H67.8269H67.7811H67.7354H67.6899H67.6446H67.5994H67.5544H67.5095H67.4648H67.4203H67.376H67.3318H67.2877H67.2439H67.2002H67.1567H67.1134H67.0703H67.0273H66.9845H66.9419H66.8995H66.8573H66.8152H66.7734H66.7317H66.6902H66.649H66.6079H66.567H66.5263H66.4858H66.4456H66.4055H66.3656H66.326H66.2865H66.2473H66.2082H66.1694H66.1308H66.0924H66.0543H66.0163H65.9786H65.9411H65.9038H65.8668H65.8299H65.7933H65.757H65.7209H65.685H65.6493H65.6139H65.5787H65.5438H65.5091H65.4746H65.4404H65.4064H65.3727H65.3393H65.3061H65.2731H65.2404H65.208H65.1758H65.1439H65.1122H65.0808H65.0497H65.0188H64.9882H64.9579H64.9278H64.898H64.8685H64.8393H64.8103H64.7816H64.7532H64.7251H64.6973H64.6698H64.6425H64.6155H64.5889H64.5625H64.5364H64.5106H64.4851H64.4599H64.435H64.4104H64.3861H64.3621H64.3384H64.3151H64.292H64.2693H64.2468H64.2247H64.2029H64.1814H64.1602H64.1394H64.1189H64.0987Z" fill="#212121" stroke="#EB7E1B"/>
<path d="M65.1767 36.3967H65.172C65.3414 34.8035 65.4774 33.5883 65.6166 32.6572C65.773 31.6102 65.9268 30.976 66.109 30.5845C66.2732 30.2319 66.4393 30.1163 66.6543 30.0539C66.9368 29.9718 67.3238 29.9752 67.9849 29.9907L67.9849 29.9909H67.9967C68.0437 29.9909 72.777 29.9773 77.5717 29.9635L77.7684 29.963L84.46 29.9438L86.6776 29.9375L87.3068 29.9357L87.4769 29.9352L87.5226 29.9351L87.5352 29.9351L87.5387 29.9351L87.5399 29.9351L87.5405 29.9351C88.7225 29.9335 89.4727 30.3088 89.9366 30.8504C90.412 31.4056 90.6485 32.2074 90.6485 33.1641C90.6485 34.1139 90.3991 34.9154 89.9082 35.4732C89.4268 36.02 88.6568 36.3967 87.4742 36.3967H87.4735H87.4723H87.4706H87.4684H87.4656H87.4624H87.4586H87.4544H87.4496H87.4444H87.4386H87.4324H87.4256H87.4184H87.4107H87.4025H87.3938H87.3846H87.3749H87.3648H87.3542H87.3431H87.3315H87.3195H87.307H87.294H87.2806H87.2667H87.2523H87.2375H87.2222H87.2065H87.1903H87.1736H87.1566H87.139H87.121H87.1026H87.0838H87.0644H87.0447H87.0245H87.0039H86.9829H86.9614H86.9395H86.9172H86.8945H86.8713H86.8477H86.8237H86.7993H86.7745H86.7492H86.7236H86.6975H86.6711H86.6442H86.617H86.5893H86.5612H86.5328H86.504H86.4747H86.4451H86.4151H86.3847H86.3539H86.3228H86.2912H86.2593H86.227H86.1944H86.1614H86.128H86.0942H86.0601H86.0256H85.9907H85.9555H85.92H85.8841H85.8478H85.8112H85.7742H85.7369H85.6992H85.6612H85.6229H85.5842H85.5452H85.5059H85.4662H85.4262H85.3859H85.3452H85.3042H85.2629H85.2213H85.1793H85.1371H85.0945H85.0516H85.0084H84.9649H84.9211H84.877H84.8326H84.7879H84.7429H84.6976H84.652H84.6061H84.5599H84.5134H84.4667H84.4197H84.3723H84.3247H84.2769H84.2287H84.1803H84.1316H84.0827H84.0334H83.9839H83.9342H83.8842H83.8339H83.7834H83.7326H83.6815H83.6302H83.5787H83.5269H83.4749H83.4226H83.3701H83.3173H83.2643H83.2111H83.1576H83.104H83.05H82.9959H82.9415H82.8869H82.8321H82.7771H82.7218H82.6664H82.6107H82.5548H82.4987H82.4424H82.3859H82.3292H82.2723H82.2152H82.1579H82.1004H82.0427H81.9848H81.9268H81.8685H81.8101H81.7515H81.6927H81.6337H81.5745H81.5152H81.4557H81.396H81.3362H81.2762H81.216H81.1557H81.0952H81.0345H80.9737H80.9128H80.8517H80.7904H80.729H80.6675H80.6058H80.5439H80.4819H80.4198H80.3576H80.2952H80.2327H80.17H80.1073H80.0444H79.9813H79.9182H79.8549H79.7915H79.728H79.6644H79.6007H79.5369H79.4729H79.4089H79.3447H79.2805H79.2162H79.1517H79.0872H79.0225H78.9578H78.893H78.8281H78.7631H78.698H78.6329H78.5677H78.5024H78.437H78.3715H78.306H78.2404H78.1747H78.109H78.0432H77.9774H77.9115H77.8455H77.7795H77.7134H77.6473H77.5811H77.5149H77.4486H77.3823H77.316H77.2496H77.1832H77.1167H77.0502H76.9837H76.9172H76.8506H76.784H76.7174H76.6507H76.5841H76.5174H76.4507H76.384H76.3173H76.2506H76.1839H76.1171H76.0504H75.9837H75.9169H75.8502H75.7835H75.7168H75.6501H75.5834H75.5167H75.45H75.3834H75.3168H75.2502H75.1836H75.117H75.0505H74.984H74.9175H74.8511H74.7847H74.7184H74.6521H74.5858H74.5196H74.4534H74.3873H74.3212H74.2551H74.1892H74.1233H74.0574H73.9916H73.9259H73.8602H73.7946H73.7291H73.6636H73.5982H73.5329H73.4676H73.4025H73.3374H73.2724H73.2075H73.1427H73.0779H73.0133H72.9487H72.8843H72.8199H72.7556H72.6915H72.6274H72.5635H72.4996H72.4359H72.3722H72.3087H72.2453H72.182H72.1189H72.0558H71.9929H71.9301H71.8675H71.8049H71.7425H71.6802H71.6181H71.5561H71.4942H71.4325H71.3709H71.3095H71.2482H71.1871H71.1261H71.0653H71.0046H70.9441H70.8837H70.8236H70.7635H70.7037H70.644H70.5844H70.5251H70.4659H70.4069H70.3481H70.2894H70.2309H70.1727H70.1146H70.0567H69.9989H69.9414H69.8841H69.8269H69.77H69.7133H69.6567H69.6004H69.5443H69.4884H69.4326H69.3772H69.3219H69.2668H69.212H69.1573H69.1029H69.0487H68.9948H68.9411H68.8876H68.8343H68.7813H68.7285H68.6759H68.6236H68.5716H68.5197H68.4681H68.4168H68.3657H68.3149H68.2643H68.214H68.164H68.1142H68.0646H68.0154H67.9664H67.9176H67.8692H67.821H67.7731H67.7254H67.6781H67.631H67.5842H67.5377H67.4915H67.4455H67.3999H67.3545H67.3095H67.2647H67.2203H67.1761H67.1322H67.0887H67.0455H67.0025H66.9599H66.9176H66.8756H66.8339H66.7926H66.7515H66.7108H66.6704H66.6304H66.5906H66.5513H66.5122H66.4735H66.4351H66.397H66.3593H66.3219H66.2849H66.2482H66.2119H66.176H66.1403H66.1051H66.0702H66.0356H66.0014H65.9676H65.9342H65.9011H65.8684H65.836H65.8041H65.7725H65.7413H65.7104H65.68H65.6499H65.6202H65.5909H65.562H65.5335H65.5054H65.4777H65.4504H65.4234H65.3969H65.3708H65.3451H65.3198H65.2949H65.2704H65.2463H65.2227H65.1995H65.1767Z" fill="#212121" stroke="#EB7E1B"/>
<path d="M142.82 3.96307L142.822 3.96055C143.533 2.82904 144.314 2.11004 145.115 1.70472C145.912 1.30135 146.762 1.19241 147.647 1.33128L147.649 1.33154C148.45 1.45454 149.219 1.88618 149.645 2.28898L149.646 2.28974C150.089 2.70651 150.406 3.25429 150.567 3.86073C150.567 3.86077 150.567 3.86081 150.567 3.86086L157.762 31.3687L157.725 31.4265L157.282 32.1137C156.9 32.7065 156.353 33.5552 155.692 34.5788C154.371 36.626 152.596 39.3726 150.784 42.1704C147.151 47.7796 143.388 53.5586 142.792 54.3615C142.183 55.1802 141.648 55.839 141.023 56.2948C140.417 56.7361 139.713 56.9966 138.742 56.9747C137.841 56.9543 137.147 56.4825 136.657 55.9739C136.414 55.7215 136.23 55.4692 136.108 55.28C136.047 55.1859 136.002 55.1086 135.973 55.0564C135.967 55.0461 135.962 55.0368 135.958 55.0286C135.956 55.026 135.955 55.0235 135.954 55.0211L130.828 36.1655L130.532 35.0756L129.924 36.0276L130.345 36.2966C129.924 36.0276 129.924 36.0277 129.924 36.0278L129.923 36.0284L129.922 36.0305L129.916 36.0393L129.894 36.0739L129.808 36.2091L129.479 36.7245C129.195 37.1698 128.787 37.8087 128.291 38.5834C127.301 40.1327 125.964 42.2247 124.573 44.3956C121.79 48.7404 118.802 53.392 117.96 54.6497C117.012 56.0643 116.072 56.7456 115.185 56.9752C114.302 57.2038 113.374 57.01 112.397 56.469C111.625 56.0399 111.439 55.1492 111.528 54.1608C111.61 53.2801 111.928 52.4242 112.413 51.6628L142.82 3.96307Z" fill="#212121" stroke="#EB7E1B"/>
<path d="M3.60167 61.4966H6.03851L8.8694 70.5908H6.71254L5.53386 65.9861C5.28499 65.0757 5.04304 64.0012 4.80108 63.0524H4.74577C4.52801 64.0117 4.28606 65.0757 4.03719 65.9861L2.85506 70.5908H0.774231L3.60167 61.4966ZM2.6373 66.8268H6.97177V68.4245H2.6373V66.8268Z" fill="#EB7E1B"/>
<path d="M9.28418 66.0035C9.28418 63.0314 10.9468 61.3291 13.3767 61.3291C15.8066 61.3291 17.4692 63.0454 17.4692 66.0035C17.4692 68.9756 15.8066 70.7582 13.3767 70.7582C10.9468 70.7582 9.28418 68.9756 9.28418 66.0035ZM15.3815 66.0035C15.3815 64.1791 14.6072 63.1047 13.3767 63.1047C12.1462 63.1047 11.3719 64.1826 11.3719 66.0035C11.3719 67.8279 12.1462 68.9826 13.3767 68.9826C14.6038 68.9826 15.3815 67.8279 15.3815 66.0035Z" fill="#EB7E1B"/>
<path d="M28.6165 70.3014L28.9829 68.5224C29.1454 68.5782 29.2975 68.6305 29.6639 68.6305C30.0579 68.6305 30.3586 68.5084 30.528 68.2119L30.6628 67.9363L27.6072 61.2212H29.7641L30.8149 63.8758L31.565 66.0491H31.6203L32.3392 63.8758L33.2932 61.2212H35.336L32.5535 68.2503C31.997 69.6317 31.1778 70.4828 29.771 70.4828C29.2422 70.4828 28.8862 70.4096 28.6165 70.3014Z" fill="#EB7E1B"/>
<path d="M36.3211 61.2246H39.4181C41.4022 61.2246 42.9991 61.9397 42.9991 64.1479C42.9991 66.2862 41.3815 67.2316 39.4735 67.2316H38.3605V70.3153H36.3246V61.2246H36.3211ZM39.3525 65.599C40.4724 65.599 41.0012 65.0967 41.0012 64.1479C41.0012 63.1955 40.3963 62.8537 39.2972 62.8537H38.3605V65.5955H39.3525V65.599Z" fill="#EB7E1B"/>
<path d="M45.5466 61.2246H47.9834L50.8143 70.3188H48.6574L47.4787 65.7141C47.2299 64.8037 46.9879 63.7293 46.746 62.7804H46.6907C46.4729 63.7397 46.2309 64.8037 45.9821 65.7141L44.7999 70.3188H42.7191L45.5466 61.2246ZM44.5822 66.5514H48.9167V68.149H44.5822V66.5514Z" fill="#EB7E1B"/>
<path d="M50.8109 70.3503L51.1772 68.5014C51.2913 68.5328 51.4019 68.5607 51.5644 68.5607C52.0172 68.5607 52.3352 68.341 52.7534 66.3875C53.1164 64.6886 53.4032 62.9724 53.7212 61.2212H58.9717V70.3154H56.9358V62.9479H55.287C55.0658 64.2386 54.8515 65.4072 54.6268 66.6037C54.0427 69.6596 53.2995 70.4828 51.8616 70.4828C51.3846 70.4828 51.1012 70.4549 50.8109 70.3503Z" fill="#EB7E1B"/>
<path d="M60.337 69.1502L61.412 67.8595C61.9028 68.3408 62.5181 68.7106 63.3166 68.7106C64.6197 68.7106 65.425 67.8525 65.425 65.742C65.425 63.7153 64.6335 62.8327 63.2716 62.8327C62.5907 62.8327 62.0653 63.1083 61.5503 63.5548L60.4753 62.2362C61.132 61.6083 62.1897 61.0571 63.3822 61.0571C65.6704 61.0571 67.4367 62.6025 67.4367 65.8222C67.4367 69.042 65.5944 70.4827 63.3408 70.4827C62.1655 70.4827 61.1459 70.0257 60.337 69.1502ZM62.2485 64.7722H66.2892V66.4955H62.2485V64.7722Z" fill="#EB7E1B"/>
<path d="M67.7755 70.3503L68.1418 68.5014C68.2559 68.5328 68.3665 68.5607 68.529 68.5607C68.9818 68.5607 69.2998 68.341 69.718 66.3875C70.0809 64.6886 70.3678 62.9724 70.6858 61.2212H75.9363V70.3154H73.9004V62.9479H72.2516C72.0304 64.2386 71.8161 65.4072 71.5914 66.6037C71.0073 69.6596 70.2641 70.4828 68.8262 70.4828C68.3492 70.4828 68.0658 70.4549 67.7755 70.3503Z" fill="#EB7E1B"/>
<path d="M78.0621 61.2246H83.7066V62.9479H80.098V64.7723H83.1708V66.4955H80.098V68.5886H83.8448V70.3118H78.0621V61.2246Z" fill="#EB7E1B"/>
<path d="M85.6387 61.2246H87.6746V64.7967H89.8522L93.2016 70.3153H91.0586L88.6666 66.4502H87.6746V70.3153H85.6387V61.2246ZM88.4765 65.1455L89.8419 62.7002C90.5297 61.4688 91.2003 61.0571 92.2269 61.0571C92.4757 61.0571 92.7661 61.085 92.9631 61.1827L92.6313 63.035C92.4792 62.9827 92.3236 62.9792 92.2407 62.9792C91.8294 62.9792 91.5943 63.1641 91.2314 63.806L90.2324 65.5536L88.4765 65.1455Z" fill="#EB7E1B"/>
<path d="M96.0014 62.9479H93.5231V61.2246H100.519V62.9479H98.0407V70.3153H96.0049V62.9479H96.0014Z" fill="#EB7E1B"/>
<path d="M101.926 61.2246H105.023C107.007 61.2246 108.604 61.9397 108.604 64.1479C108.604 66.2862 106.986 67.2316 105.078 67.2316H103.965V70.3153H101.929V61.2246H101.926ZM104.957 65.599C106.077 65.599 106.606 65.0967 106.606 64.1479C106.606 63.1955 106.001 62.8537 104.902 62.8537H103.965V65.5955H104.957V65.599Z" fill="#EB7E1B"/>
<path d="M109.741 65.7315C109.741 62.7595 111.404 61.0571 113.834 61.0571C116.264 61.0571 117.926 62.7734 117.926 65.7315C117.926 68.7036 116.264 70.4862 113.834 70.4862C111.404 70.4827 109.741 68.7002 109.741 65.7315ZM115.838 65.7315C115.838 63.9071 115.064 62.8327 113.834 62.8327C112.603 62.8327 111.829 63.9106 111.829 65.7315C111.829 67.556 112.603 68.7106 113.834 68.7106C115.061 68.7071 115.838 67.5525 115.838 65.7315Z" fill="#EB7E1B"/>
<path d="M119.623 61.2246H121.846L123.308 65.2641C123.488 65.8014 123.647 66.3839 123.826 66.9421H123.882C124.061 66.3839 124.214 65.8014 124.397 65.2641L125.814 61.2246H128.036V70.3188H126.18V66.9804C126.18 66.0944 126.346 64.7723 126.44 63.8897H126.384L125.645 66.0421L124.369 69.5269H123.239L121.963 66.0421L121.244 63.8897H121.189C121.286 64.7688 121.448 66.0944 121.448 66.9804V70.3188H119.62V61.2246H119.623Z" fill="#EB7E1B"/>
<path d="M130.159 61.2246H135.803V62.9479H132.195V64.7723H135.267V66.4955H132.195V68.5886H135.942V70.3118H130.159V61.2246Z" fill="#EB7E1B"/>
<path d="M138.842 72.9386H137.023L136.851 69.8723V68.5921H145.751V69.8723L145.578 72.9386H143.76V70.3153H138.842V72.9386ZM142.613 62.9479H140.867C140.673 64.0467 140.587 64.6014 140.38 65.7141C139.882 68.3339 139.035 69.8304 137.576 69.8688L137.262 68.5921C137.666 68.449 138.126 67.6467 138.551 65.4421C138.855 63.8479 139.001 62.9583 139.298 61.2246H144.645V69.6944H142.609V62.9479H142.613Z" fill="#EB7E1B"/>
<path d="M146.93 61.2246H148.966V64.5455H150.127C152.16 64.5455 153.653 65.3409 153.653 67.3397C153.653 69.5339 152.09 70.3188 150.093 70.3188H146.93V61.2246ZM149.972 68.6827C151.036 68.6827 151.662 68.306 151.662 67.3641C151.662 66.5583 151.098 66.1746 149.961 66.1746H148.966V68.6827H149.972Z" fill="#EB7E1B"/>
<path d="M24.7936 62.1665H25.8236V64.0258H23.9986V62.1665C23.9986 62.1665 23.8983 60.22 25.8236 60.22C25.8236 60.7886 25.8236 60.9769 25.8236 60.9769C25.8236 60.9769 24.7867 60.949 24.7936 62.1665Z" fill="#EB7E1B"/>
<path d="M21.9696 62.1665H22.9996V64.0258H21.1746V62.1665C21.1746 62.1665 21.0744 60.22 22.9996 60.22C22.9996 60.7886 22.9996 60.9769 22.9996 60.9769C22.9996 60.9769 21.9627 60.949 21.9696 62.1665Z" fill="#EB7E1B"/>
<path d="M154.686 62.0827H153.656V60.2234H155.481V62.0827C155.481 62.0827 155.581 64.0292 153.656 64.0292C153.656 63.4606 153.656 63.2722 153.656 63.2722C153.656 63.2722 154.693 63.3001 154.686 62.0827Z" fill="#EB7E1B"/>
<path d="M157.51 62.0827H156.48V60.2234H158.305V62.0827C158.305 62.0827 158.405 64.0292 156.48 64.0292C156.48 63.4606 156.48 63.2722 156.48 63.2722C156.48 63.2722 157.517 63.3001 157.51 62.0827Z" fill="#EB7E1B"/>
</svg>
